<svg xmlns="http://www.w3.org/2000/svg" width="146.667" height="56.334"><path fill-rule="evenodd" clip-rule="evenodd" fill="#46483E" d="M31.155 29.981c0-.542-.285-1.04-.753-1.309l-12.469-7.176c-.211-.124-.447-.188-.687-.198h-.129c-.238.01-.475.074-.688.198l-12.468 7.176c-.465.269-.754.767-.754 1.309l.027 19.322c0 .27.14.52.376.65.231.14.518.14.748 0l7.41-4.243c.469-.278.754-.77.754-1.307v-9.026c0-.538.285-1.037.752-1.304l3.155-1.817c.235-.137.492-.203.755-.203.257 0 .521.066.749.203l3.154 1.817c.467.267.753.766.753 1.304v9.026c0 .537.289 1.032.755 1.307l7.408 4.243c.232.14.522.14.753 0 .229-.131.374-.381.374-.65l.025-19.322z"/><path fill-rule="evenodd" clip-rule="evenodd" fill="#46483E" d="M97.735 3.419c-.233-.13-.518-.127-.749.008-.229.135-.371.382-.371.649v19.135c0 .188-.101.362-.263.457-.163.094-.364.094-.528 0l-3.122-1.799c-.467-.269-1.04-.268-1.505 0l-12.474 7.199c-.466.269-.753.766-.753 1.304v14.4c0 .538.287 1.035.753 1.305l12.473 7.204c.467.27 1.041.27 1.507 0l12.476-7.204c.466-.27.753-.767.753-1.305v-35.895c0-.546-.295-1.049-.772-1.315l-7.425-4.143zm-1.157 36.623c0 .135-.072.259-.188.326l-4.283 2.468c-.116.067-.259.067-.375 0l-4.283-2.468c-.117-.067-.188-.191-.188-.326v-4.945c0-.135.072-.259.188-.326l4.283-2.474c.117-.067.26-.067.377 0l4.282 2.474c.116.067.188.191.188.326v4.945z"/><path fill-rule="evenodd" clip-rule="evenodd" fill="#46483E" d="M142.361 34.968c.465-.27.75-.766.75-1.303v-3.49c0-.537-.285-1.033-.75-1.303l-12.394-7.196c-.466-.271-1.042-.271-1.509-.002l-12.47 7.199c-.466.269-.753.766-.753 1.304v14.396c0 .541.291 1.041.761 1.309l12.392 7.061c.457.262 1.018.264 1.477.009l7.495-4.166c.238-.133.387-.382.388-.653.002-.271-.143-.522-.378-.658l-12.548-7.202c-.234-.134-.379-.384-.379-.653v-4.512c0-.269.144-.518.377-.652l3.905-2.252c.232-.134.52-.134.752 0l3.907 2.252c.233.135.377.384.377.652v3.55c0 .27.145.519.378.653s.521.133.754-.002l7.468-4.341z"/><path fill-rule="evenodd" clip-rule="evenodd" fill="#8CC84B" d="M53.837 21.599c.466-.269 1.04-.269 1.506 0l12.472 7.197c.466.269.753.766.753 1.305v14.406c0 .538-.287 1.035-.753 1.305l-12.472 7.203c-.466.27-1.041.27-1.507 0l-12.469-7.203c-.466-.27-.753-.767-.753-1.305v-14.406c0-.538.287-1.035.753-1.304l12.47-7.198z"/><path fill="#8CC84B" d="M166.578 53.22c-.43 0-.857-.112-1.233-.33l-3.927-2.323c-.586-.327-.3-.443-.106-.511.782-.271.94-.334 1.775-.808.087-.05.202-.03.292.021l3.017 1.791c.109.062.264.062.364 0l11.761-6.788c.109-.062.18-.188.18-.317v-13.573c0-.133-.07-.257-.183-.324l-11.756-6.782c-.108-.063-.253-.063-.362 0l-11.753 6.784c-.114.065-.187.193-.187.322v13.573c0 .13.072.252.186.313l3.222 1.862c1.748.873 2.818-.156 2.818-1.19v-13.4c0-.189.152-.339.342-.339h1.491c.187 0 .341.149.341.339v13.4c0 2.333-1.271 3.671-3.482 3.671-.68 0-1.215 0-2.709-.735l-3.084-1.776c-.762-.439-1.233-1.264-1.233-2.145v-13.573c0-.882.472-1.705 1.233-2.144l11.761-6.796c.744-.421 1.733-.421 2.472 0l11.76 6.796c.762.44 1.235 1.262 1.235 2.144v13.573c0 .881-.474 1.701-1.235 2.145l-11.76 6.79c-.378.217-.804.33-1.24.33z"/><path fill="#8CC84B" d="M170.211 43.869c-5.146 0-6.225-2.362-6.225-4.343 0-.189.151-.34.34-.34h1.521c.17 0 .312.123.338.288.229 1.548.914 2.33 4.026 2.33 2.478 0 3.532-.561 3.532-1.875 0-.758-.299-1.32-4.149-1.698-3.218-.317-5.208-1.029-5.208-3.604 0-2.372 2-3.788 5.354-3.788 3.768 0 5.632 1.307 5.868 4.113.009.098-.025.19-.09.262-.064.067-.154.108-.249.108h-1.526c-.158 0-.298-.112-.33-.266-.366-1.628-1.257-2.148-3.673-2.148-2.705 0-3.02.942-3.02 1.647 0 .855.371 1.104 4.023 1.588 3.614.479 5.331 1.154 5.331 3.695 0 2.564-2.136 4.031-5.863 4.031z"/><g fill="#8CC84B"><path d="M186.428 21.474v.349h-.989v2.579h-.399v-2.579h-.986v-.349h2.374zM186.781 21.474h.568l.841 2.475.837-2.475h.564v2.928h-.379v-1.728l.003-.296.006-.446-.837 2.47h-.393l-.844-2.47v.088l.005.33.007.324v1.728h-.379v-2.928z"/></g><path fill-rule="evenodd" clip-rule="evenodd" fill="#8CC84B" d="M129.029 34.293c.09-.052.199-.052.289 0l2.394 1.381c.09.052.145.146.145.25v2.765c0 .103-.055.198-.145.25l-2.394 1.381c-.09.052-.199.052-.289 0l-2.392-1.381c-.09-.052-.145-.147-.145-.25v-2.765c0-.104.055-.198.145-.25l2.392-1.381z"/></svg>