<svg xmlns="http://www.w3.org/2000/svg" width="277.334" height="296.667"><path fill="#B2B2B2" d="M137.923 7l-133.923 47.13 21.163 175.462 112.902 62.054 113.486-62.895 21.154-175.455-134.782-46.296zm0 0"/><path fill="#B52E31" d="M259.348 63.437l-121.738-41.513v254.896l102.022-56.462 19.716-156.921zm0 0"/><path fill="#E23237" d="M19.028 64.186l18.134 156.923 100.447 55.713v-254.904l-118.581 42.268zm0 0"/><path fill="#F2F2F2" d="M165.828 148.705l-27.996-58.464-24.646 58.464h52.642zm10.674 24.583h-74.21l-16.603 41.526-30.881.57 82.804-184.206 85.689 184.206h-28.621l-18.178-42.096zm0 0"/><path fill="#B2B2B2" d="M137.61 31.179l.221 59.062 27.967 58.509h-28.125l-.063 24.5 38.89.038 18.178 42.104 29.549.549-86.617-184.762zm0 0"/></svg>