<svg xmlns="http://www.w3.org/2000/svg" width="127.332" height="173.333"><rect x="-294.564" y="214.092" width="530.973" height="275.986"/><path fill-rule="evenodd" clip-rule="evenodd" fill="#191717" d="M66.36 3.45c-30.322 0-54.909 24.584-54.909 54.913 0 24.258 15.731 44.839 37.554 52.101 2.746.504 3.747-1.191 3.747-2.646 0-1.304-.047-4.757-.073-9.339-15.274 3.318-18.497-7.361-18.497-7.361-2.498-6.344-6.097-8.032-6.097-8.032-4.987-3.407.379-3.338.379-3.338 5.511.389 8.407 5.659 8.407 5.659 4.898 8.391 12.852 5.968 15.982 4.562.497-3.549 1.919-5.969 3.486-7.341-12.193-1.386-25.013-6.097-25.013-27.139 0-5.995 2.14-10.896 5.652-14.735-.562-1.389-2.449-6.972.537-14.53 0 0 4.612-1.478 15.104 5.629 4.378-1.218 9.075-1.831 13.747-1.85 4.661.02 9.358.632 13.747 1.85 10.481-7.107 15.083-5.629 15.083-5.629 2.996 7.559 1.113 13.142.547 14.53 3.519 3.839 5.643 8.74 5.643 14.735 0 21.095-12.839 25.736-25.071 27.096 1.975 1.695 3.729 5.046 3.729 10.169 0 7.341-.069 13.263-.069 15.063 0 1.468.991 3.177 3.779 2.64 21.799-7.274 37.518-27.843 37.518-52.094 0-30.329-24.586-54.913-54.912-54.913z"/><g stroke="#1981BC" stroke-linecap="round" stroke-miterlimit="10" fill="none"><line x1="-69.666" y1="-9.41" x2="-69.666" y2="-8.91"/><line stroke-dasharray="0.9999,1.9999" x1="-69.666" y1="-6.91" x2="-69.666" y2="127.083"/><line x1="-69.666" y1="128.083" x2="-69.666" y2="128.583"/></g><g fill="#0072BC"><path d="M-161.288 142.599c-.38-.276-.866-.414-1.458-.414-.24 0-.476.024-.708.071-.232.049-.438.129-.618.24-.18.113-.324.263-.432.451-.108.188-.162.422-.162.701 0 .264.078.479.234.643.156.164.364.298.624.401.26.104.554.19.882.259.328.067.662.142 1.002.221.34.08.674.175 1.002.283.328.107.622.254.882.438s.468.416.624.695c.156.281.234.633.234 1.057 0 .456-.102.846-.306 1.17s-.466.588-.786.792c-.32.204-.678.353-1.074.444s-.79.138-1.182.138c-.48 0-.934-.06-1.362-.18-.428-.12-.804-.302-1.128-.546-.324-.244-.58-.557-.768-.937s-.282-.829-.282-1.35h1.08c0 .36.07.67.21.93.14.261.324.474.552.642s.494.293.798.373c.304.08.616.119.936.119.256 0 .514-.023.774-.072.26-.047.494-.129.702-.246.208-.115.376-.273.504-.473.128-.201.192-.457.192-.769 0-.296-.078-.536-.234-.72-.156-.184-.364-.334-.624-.45-.26-.116-.554-.21-.882-.282l-1.002-.223c-.34-.075-.674-.163-1.002-.264-.328-.1-.623-.231-.882-.396s-.468-.376-.624-.636c-.156-.26-.234-.586-.234-.979 0-.432.088-.806.264-1.122.176-.315.41-.575.702-.78.292-.203.624-.355.996-.455.372-.101.754-.15 1.146-.15.44 0 .848.053 1.224.156s.706.268.99.492c.284.224.508.506.672.846.164.34.254.746.27 1.218h-1.08c-.065-.614-.286-1.06-.666-1.336zM-157.01 143.793v.912h.024c.464-.705 1.132-1.057 2.004-1.057.384 0 .732.08 1.044.24s.532.432.66.816c.208-.336.482-.596.822-.78.34-.185.714-.276 1.122-.276.312 0 .594.034.846.102.252.068.468.175.648.318.18.145.32.33.42.559.1.228.15.502.15.822v4.547h-1.02v-4.067c0-.192-.017-.372-.048-.54s-.092-.314-.18-.438c-.088-.125-.21-.223-.366-.295s-.358-.107-.606-.107c-.504 0-.9.144-1.188.432s-.432.672-.432 1.152v3.863h-1.02v-4.067c0-.2-.018-.384-.054-.552-.036-.168-.098-.314-.186-.438s-.206-.22-.354-.288c-.148-.068-.338-.102-.57-.102-.296 0-.55.06-.762.18-.212.12-.384.264-.516.432s-.228.342-.288.522-.09.33-.09.45v3.863h-1.02v-6.203h.96zM-142.97 150.129c-.264 0-.474-.074-.63-.223-.156-.147-.234-.39-.234-.726-.28.336-.606.578-.978.726-.372.148-.774.223-1.206.223-.28 0-.544-.03-.792-.09-.248-.061-.466-.16-.654-.301-.188-.14-.336-.319-.444-.539-.108-.221-.162-.486-.162-.799 0-.352.06-.64.18-.863.12-.225.278-.406.474-.547.196-.14.42-.246.672-.318.252-.071.51-.131.774-.18.28-.056.546-.098.798-.125.252-.028.474-.068.666-.121.192-.051.344-.127.456-.228.112-.101.168-.246.168-.438 0-.223-.042-.403-.126-.539-.084-.137-.192-.24-.324-.312s-.28-.12-.444-.145c-.164-.023-.326-.035-.486-.035-.432 0-.792.082-1.08.246s-.444.474-.468.93h-1.02c.016-.384.096-.708.24-.973.144-.264.336-.478.576-.642.24-.163.516-.282.828-.354.312-.071.64-.107.984-.107.28 0 .558.02.834.061.276.039.526.121.75.246.224.123.404.298.54.521.136.225.204.516.204.876v3.192c0 .24.014.416.042.527.028.112.122.168.282.168.088 0 .192-.02.312-.06v.792c-.177.105-.42.157-.732.157zm-1.428-3.127c-.208.045-.426.08-.654.108l-.69.097c-.232.035-.44.094-.624.174-.185.08-.334.193-.45.342-.116.148-.174.35-.174.605 0 .168.034.311.102.426.068.117.156.211.264.283.108.071.236.123.384.155.148.032.298.048.45.048.336 0 .624-.045.864-.138.24-.092.436-.208.588-.349.152-.139.264-.291.336-.455s.108-.318.108-.463v-1.043c-.128.097-.296.167-.504.21zM-140.21 141.429v8.567h-1.02v-8.567h1.02zM-137.546 141.429v8.567h-1.02v-8.567h1.02zM-192.71 159.092v-.899h1.044v-.924c0-.504.146-.886.438-1.146s.718-.391 1.278-.391l.33.023.33.072v.889l-.288-.066-.288-.018c-.248 0-.44.048-.576.144-.136.097-.204.28-.204.552v.864h1.2v.899h-1.2v5.305h-1.02v-5.305h-1.044zM-188.678 160.023c.128-.396.32-.739.576-1.032.256-.291.572-.521.948-.689s.808-.252 1.296-.252c.496 0 .93.084 1.302.252s.686.398.942.689c.256.293.448.637.576 1.032.128.396.192.822.192 1.278 0 .455-.064.88-.192 1.271-.128.393-.32.734-.576 1.026-.256.292-.57.521-.942.685-.372.163-.806.245-1.302.245-.488 0-.92-.082-1.296-.245-.376-.164-.692-.393-.948-.685-.256-.292-.448-.634-.576-1.026-.128-.392-.192-.816-.192-1.271 0-.456.064-.883.192-1.278zm1.038 2.28c.1.292.238.535.414.732.176.195.382.346.618.449s.486.156.75.156.514-.053.75-.156.442-.254.618-.449c.176-.197.314-.44.414-.732s.15-.626.15-1.002c0-.377-.05-.71-.15-1.002-.1-.293-.238-.538-.414-.738-.176-.199-.382-.352-.618-.456s-.486-.156-.75-.156-.514.052-.75.156-.442.257-.618.456c-.176.2-.314.445-.414.738-.1.292-.15.625-.15 1.002 0 .376.05.71.15 1.002zM-180.722 158.193v1.308h.024c.248-.504.552-.875.912-1.115s.816-.352 1.368-.336v1.08c-.408 0-.756.056-1.044.168-.288.111-.521.275-.696.492-.176.215-.304.478-.384.785-.08.309-.12.662-.12 1.062v2.76h-1.02v-6.204h.96zM-171.831 164.397v-6.096h-2.208v-.816c.288 0 .568-.021.84-.066.272-.043.518-.125.738-.246.22-.119.406-.283.558-.491.152-.208.256-.472.312-.792h.78v8.508h-1.02zM-163.886 157.137c-.248-.232-.576-.348-.984-.348-.432 0-.78.105-1.044.317-.264.212-.47.479-.618.804s-.25.674-.306 1.051c-.056.375-.088.728-.096 1.056l.024.024c.24-.393.538-.676.894-.853.356-.176.766-.265 1.23-.265.408 0 .774.07 1.098.211.324.14.596.334.816.582.22.248.39.539.51.875.12.337.18.701.18 1.093 0 .312-.048.636-.144.972s-.254.643-.474.918c-.22.276-.512.504-.876.684-.364.181-.814.271-1.35.271-.632 0-1.14-.128-1.524-.384-.384-.256-.68-.584-.888-.984-.208-.399-.346-.84-.414-1.32-.068-.479-.102-.943-.102-1.392 0-.583.05-1.149.15-1.698.1-.547.27-1.033.51-1.457.24-.424.56-.764.96-1.021.4-.256.904-.384 1.512-.384.704 0 1.264.186 1.68.558s.656.91.72 1.614h-1.02c-.048-.385-.196-.691-.444-.924zm-1.848 2.838c-.216.1-.4.236-.552.408s-.266.376-.342.611c-.076.236-.114.486-.114.75s.04.512.12.744c.08.232.194.432.342.6s.332.303.552.402c.22.101.47.15.75.15s.526-.05.738-.15c.212-.1.39-.238.534-.414s.254-.378.33-.605c.076-.229.114-.467.114-.715 0-.264-.034-.514-.102-.75-.068-.235-.174-.439-.318-.611s-.324-.311-.54-.414-.468-.156-.756-.156-.54.05-.756.15zM-159.914 158.193v.841h.024c.168-.345.432-.595.792-.75.36-.156.756-.234 1.188-.234.48 0 .898.088 1.254.264s.652.414.888.714.414.646.534 1.038c.12.393.18.809.18 1.248s-.058.855-.174 1.248c-.116.393-.292.734-.528 1.025-.236.293-.532.522-.888.69-.356.168-.771.252-1.242.252-.152 0-.322-.017-.51-.048-.188-.032-.374-.084-.558-.156-.184-.072-.358-.17-.522-.294-.164-.124-.302-.278-.414-.462h-.024v3.191h-1.02v-8.567h1.02zm3.666 2.202c-.076-.275-.192-.521-.348-.738-.156-.216-.356-.388-.6-.516s-.53-.192-.858-.192c-.344 0-.636.068-.876.204-.24.137-.436.314-.588.534-.152.22-.262.47-.33.75s-.102.563-.102.853c0 .304.036.598.108.881.072.285.186.535.342.75.156.217.358.391.606.522.248.132.548.198.9.198s.646-.068.882-.204.426-.315.57-.54c.144-.224.248-.48.312-.768.064-.289.096-.584.096-.889 0-.286-.038-.57-.114-.845zM-154.347 158.193h1.308l1.488 2.172 1.548-2.172h1.224l-2.136 2.856 2.4 3.348h-1.308l-1.728-2.568-1.728 2.568h-1.236l2.328-3.264-2.16-2.94zM-144.339 160.581v.961h-3.468v-.961h3.468zM-140.487 164.397v-6.096h-2.208v-.816c.288 0 .568-.021.84-.066.272-.043.518-.125.738-.246.22-.119.406-.283.558-.491.152-.208.256-.472.312-.792h.78v8.508h-1.02zM-136.407 157.702c.112-.369.286-.687.522-.955.236-.268.53-.478.882-.629.352-.152.752-.229 1.2-.229.368 0 .714.054 1.038.162.324.107.606.264.846.468.24.204.43.458.57.762.14.304.21.656.21 1.056 0 .377-.058.709-.174.996-.116.289-.27.547-.462.774s-.412.435-.66.618-.504.359-.768.527l-.792.475c-.264.156-.506.322-.726.498-.22.176-.408.365-.564.57-.156.203-.258.438-.306.701h4.368v.9h-5.556c.04-.504.13-.934.27-1.29s.318-.666.534-.931c.216-.264.46-.495.732-.695.271-.199.556-.388.852-.564.36-.224.676-.43.948-.617s.498-.379.678-.57c.18-.191.316-.4.408-.624s.138-.483.138-.78c0-.231-.044-.441-.132-.63-.088-.188-.206-.35-.354-.485-.148-.137-.322-.24-.522-.312-.2-.072-.412-.107-.636-.107-.296 0-.55.062-.762.186s-.386.286-.522.486c-.136.199-.234.426-.294.678s-.086.506-.078.762h-1.02c-.024-.434.02-.834.132-1.201zM-129.867 159.249c.016-.336.056-.664.12-.983s.156-.624.276-.912c.12-.288.284-.54.492-.756s.47-.388.786-.517c.316-.127.694-.191 1.134-.191s.818.064 1.134.191c.316.129.578.301.786.517s.372.468.492.756.212.593.276.912.104.647.12.983.024.66.024.973-.008.636-.024.972-.056.664-.12.983c-.064.32-.156.623-.276.906-.12.285-.284.535-.492.75-.208.217-.468.387-.78.51-.312.125-.692.187-1.14.187-.44 0-.818-.062-1.134-.187-.316-.123-.578-.293-.786-.51-.208-.215-.372-.465-.492-.75-.12-.283-.212-.586-.276-.906-.064-.319-.104-.647-.12-.983s-.024-.659-.024-.972.008-.638.024-.973zm1.086 2.035c.02.396.084.768.192 1.115s.282.643.522.882c.24.24.576.36 1.008.36s.768-.12 1.008-.36c.24-.239.414-.534.522-.882.108-.348.172-.72.192-1.115.02-.396.03-.755.03-1.074l-.006-.69c-.004-.252-.024-.504-.06-.756-.036-.253-.088-.498-.156-.738-.068-.239-.168-.45-.3-.63-.132-.18-.298-.326-.498-.438-.2-.112-.444-.168-.732-.168s-.532.056-.732.168c-.2.111-.366.258-.498.438s-.232.391-.3.63c-.068.24-.12.485-.156.738-.036.252-.056.504-.06.756l-.006.69c0 .319.01.677.03 1.074zM-121.898 158.193v.841h.024c.168-.345.432-.595.792-.75.36-.156.756-.234 1.188-.234.48 0 .898.088 1.254.264s.652.414.888.714.414.646.534 1.038c.12.393.18.809.18 1.248s-.058.855-.174 1.248c-.116.393-.292.734-.528 1.025-.236.293-.532.522-.888.69-.356.168-.771.252-1.242.252-.152 0-.322-.017-.51-.048-.188-.032-.374-.084-.558-.156-.184-.072-.358-.17-.522-.294-.164-.124-.302-.278-.414-.462h-.024v3.191h-1.02v-8.567h1.02zm3.666 2.202c-.076-.275-.192-.521-.348-.738-.156-.216-.356-.388-.6-.516s-.53-.192-.858-.192c-.344 0-.636.068-.876.204-.24.137-.436.314-.588.534-.152.22-.262.47-.33.75s-.102.563-.102.853c0 .304.036.598.108.881.072.285.186.535.342.75.156.217.358.391.606.522.248.132.548.198.9.198s.646-.068.882-.204.426-.315.57-.54c.144-.224.248-.48.312-.768.064-.289.096-.584.096-.889-.001-.286-.039-.57-.114-.845zM-116.331 158.193h1.308l1.488 2.172 1.548-2.172h1.224l-2.136 2.856 2.4 3.348h-1.308l-1.728-2.568-1.728 2.568h-1.236l2.328-3.264-2.16-2.94z"/></g><path fill-rule="evenodd" clip-rule="evenodd" fill="#fff" d="M-141.956 321.533c-8.995 0-16.289 7.294-16.289 16.291 0 7.196 4.667 13.302 11.141 15.456.814.149 1.112-.354 1.112-.785l-.022-2.771c-4.531.984-5.487-2.184-5.487-2.184-.741-1.882-1.809-2.383-1.809-2.383-1.479-1.011.112-.99.112-.99 1.635.115 2.495 1.679 2.495 1.679 1.453 2.489 3.812 1.771 4.741 1.354.148-1.053.569-1.771 1.034-2.178-3.617-.411-7.42-1.809-7.42-8.051 0-1.778.635-3.232 1.677-4.371-.167-.412-.727-2.068.16-4.311 0 0 1.368-.438 4.479 1.67 1.299-.361 2.693-.543 4.078-.549 1.383.006 2.777.188 4.078.549 3.11-2.108 4.475-1.67 4.475-1.67.889 2.242.33 3.898.162 4.311 1.044 1.139 1.674 2.593 1.674 4.371 0 6.258-3.809 7.635-7.438 8.038.585.503 1.106 1.497 1.106 3.017 0 2.178-.02 3.935-.02 4.469 0 .436.293.942 1.12.783 6.467-2.158 11.13-8.26 11.13-15.454.002-8.997-7.292-16.291-16.289-16.291z"/><g fill="#fff"><path fill-rule="evenodd" clip-rule="evenodd" d="M56.045 272.524c-33.347 0-60.388 27.035-60.388 60.388 0 26.681 17.303 49.316 41.297 57.302 3.018.559 4.126-1.311 4.126-2.905 0-1.439-.056-6.197-.082-11.243-16.8 3.653-20.345-7.125-20.345-7.125-2.747-6.979-6.705-8.836-6.705-8.836-5.479-3.748.413-3.671.413-3.671 6.063.426 9.257 6.224 9.257 6.224 5.386 9.231 14.127 6.562 17.573 5.02.542-3.902 2.106-6.567 3.834-8.075-13.413-1.526-27.514-6.705-27.514-29.844 0-6.593 2.359-11.979 6.223-16.209-.627-1.521-2.694-7.663.585-15.981 0 0 5.071-1.622 16.61 6.19 4.817-1.338 9.983-2.009 15.115-2.032 5.132.023 10.302.694 15.128 2.032 11.526-7.812 16.59-6.19 16.59-6.19 3.287 8.318 1.22 14.46.593 15.981 3.872 4.229 6.215 9.616 6.215 16.209 0 23.194-14.127 28.301-27.574 29.796 2.166 1.874 4.096 5.549 4.096 11.183 0 8.08-.069 14.583-.069 16.572 0 1.607 1.087 3.49 4.147 2.897 23.981-7.994 41.263-30.622 41.263-57.294 0-33.354-27.037-60.389-60.388-60.389z"/><path d="M18.529 359.227c-.133.301-.605.391-1.035.185-.438-.197-.684-.606-.542-.907.13-.309.603-.395 1.04-.188.439.196.689.609.537.91zm-.743-.551"/><path d="M20.976 361.956c-.288.267-.852.143-1.233-.279-.396-.421-.469-.984-.177-1.255.297-.267.843-.142 1.238.279.395.425.472.984.172 1.255zm-.577-.619"/><path d="M23.356 365.433c-.37.258-.976.017-1.35-.521-.37-.537-.37-1.182.009-1.439.374-.258.971-.025 1.35.507.369.546.369 1.19-.009 1.453zm0 0"/><path d="M26.618 368.793c-.331.365-1.036.267-1.552-.231-.528-.486-.675-1.178-.344-1.543.336-.365 1.045-.263 1.564.231.526.487.685 1.182.332 1.543zm0 0"/><path d="M31.118 370.745c-.146.473-.825.688-1.509.486-.684-.207-1.13-.761-.992-1.238.142-.477.824-.7 1.513-.485.682.205 1.13.755.988 1.237zm0 0"/><path d="M36.061 371.106c.017.498-.563.911-1.281.92-.722.017-1.307-.387-1.314-.877 0-.503.567-.911 1.289-.924.717-.014 1.306.387 1.306.881zm0 0"/><path d="M40.659 370.324c.086.485-.413.984-1.126 1.117-.701.129-1.35-.172-1.439-.653-.087-.498.421-.997 1.121-1.126.714-.124 1.353.168 1.444.662zm0 0"/></g><g stroke="#1981BC" stroke-linecap="round" stroke-miterlimit="10" fill="none"><line x1="-69.666" y1="266.59" x2="-69.666" y2="267.09"/><line stroke-dasharray="0.9999,1.9999" x1="-69.666" y1="269.09" x2="-69.666" y2="403.083"/><line x1="-69.666" y1="404.083" x2="-69.666" y2="404.583"/></g><g fill="#0072BC"><path d="M-161.288 418.599c-.38-.276-.866-.414-1.458-.414-.24 0-.476.024-.708.071-.232.049-.438.129-.618.24-.18.113-.324.263-.432.451-.108.188-.162.422-.162.701 0 .264.078.479.234.643.156.164.364.298.624.401.26.104.554.19.882.259.328.067.662.142 1.002.221.34.08.674.175 1.002.283.328.107.622.254.882.438s.468.416.624.695c.156.281.234.633.234 1.057 0 .456-.102.846-.306 1.17s-.466.588-.786.792c-.32.204-.678.353-1.074.444s-.79.138-1.182.138c-.48 0-.934-.06-1.362-.18-.428-.12-.804-.302-1.128-.546-.324-.244-.58-.557-.768-.937s-.282-.829-.282-1.35h1.08c0 .36.07.67.21.93.14.261.324.474.552.642s.494.293.798.373c.304.08.616.119.936.119.256 0 .514-.023.774-.072.26-.047.494-.129.702-.246.208-.115.376-.273.504-.473.128-.201.192-.457.192-.769 0-.296-.078-.536-.234-.72-.156-.184-.364-.334-.624-.45-.26-.116-.554-.21-.882-.282l-1.002-.223c-.34-.075-.674-.163-1.002-.264-.328-.1-.623-.231-.882-.396s-.468-.376-.624-.636c-.156-.26-.234-.586-.234-.979 0-.432.088-.806.264-1.122.176-.315.41-.575.702-.78.292-.203.624-.355.996-.455.372-.101.754-.15 1.146-.15.44 0 .848.053 1.224.156s.706.268.99.492c.284.224.508.506.672.846.164.34.254.746.27 1.218h-1.08c-.065-.614-.286-1.06-.666-1.336zM-157.01 419.793v.912h.024c.464-.705 1.132-1.057 2.004-1.057.384 0 .732.08 1.044.24s.532.432.66.816c.208-.336.482-.596.822-.78.34-.185.714-.276 1.122-.276.312 0 .594.034.846.102.252.068.468.175.648.318.18.145.32.33.42.559.1.228.15.502.15.822v4.547h-1.02v-4.067c0-.192-.017-.372-.048-.54s-.092-.314-.18-.438c-.088-.125-.21-.223-.366-.295s-.358-.107-.606-.107c-.504 0-.9.144-1.188.432s-.432.672-.432 1.152v3.863h-1.02v-4.067c0-.2-.018-.384-.054-.552-.036-.168-.098-.314-.186-.438s-.206-.22-.354-.288c-.148-.068-.338-.102-.57-.102-.296 0-.55.06-.762.18-.212.12-.384.264-.516.432s-.228.342-.288.522-.09.33-.09.45v3.863h-1.02v-6.203h.96zM-142.97 426.129c-.264 0-.474-.074-.63-.223-.156-.147-.234-.39-.234-.726-.28.336-.606.578-.978.726-.372.148-.774.223-1.206.223-.28 0-.544-.03-.792-.09-.248-.061-.466-.16-.654-.301-.188-.14-.336-.319-.444-.539-.108-.221-.162-.486-.162-.799 0-.352.06-.64.18-.863.12-.225.278-.406.474-.547.196-.14.42-.246.672-.318.252-.071.51-.131.774-.18.28-.056.546-.098.798-.125.252-.028.474-.068.666-.121.192-.051.344-.127.456-.228.112-.101.168-.246.168-.438 0-.223-.042-.403-.126-.539-.084-.137-.192-.24-.324-.312s-.28-.12-.444-.145c-.164-.023-.326-.035-.486-.035-.432 0-.792.082-1.08.246s-.444.474-.468.93h-1.02c.016-.384.096-.708.24-.973.144-.264.336-.478.576-.642.24-.163.516-.282.828-.354.312-.071.64-.107.984-.107.28 0 .558.02.834.061.276.039.526.121.75.246.224.123.404.298.54.521.136.225.204.516.204.876v3.192c0 .24.014.416.042.527.028.112.122.168.282.168.088 0 .192-.02.312-.06v.792c-.177.105-.42.157-.732.157zm-1.428-3.127c-.208.045-.426.08-.654.108l-.69.097c-.232.035-.44.094-.624.174-.185.08-.334.193-.45.342-.116.148-.174.35-.174.605 0 .168.034.311.102.426.068.117.156.211.264.283.108.071.236.123.384.155.148.032.298.048.45.048.336 0 .624-.045.864-.138.24-.092.436-.208.588-.349.152-.139.264-.291.336-.455s.108-.318.108-.463v-1.043c-.128.097-.296.167-.504.21zM-140.21 417.429v8.567h-1.02v-8.567h1.02zM-137.546 417.429v8.567h-1.02v-8.567h1.02zM-192.71 435.092v-.899h1.044v-.924c0-.504.146-.886.438-1.146s.718-.391 1.278-.391l.33.023.33.072v.889l-.288-.066-.288-.018c-.248 0-.44.048-.576.144-.136.097-.204.28-.204.552v.864h1.2v.899h-1.2v5.305h-1.02v-5.305h-1.044zM-188.678 436.023c.128-.396.32-.739.576-1.032.256-.291.572-.521.948-.689s.808-.252 1.296-.252c.496 0 .93.084 1.302.252s.686.398.942.689c.256.293.448.637.576 1.032.128.396.192.822.192 1.278 0 .455-.064.88-.192 1.271-.128.393-.32.734-.576 1.026-.256.292-.57.521-.942.685-.372.163-.806.245-1.302.245-.488 0-.92-.082-1.296-.245-.376-.164-.692-.393-.948-.685-.256-.292-.448-.634-.576-1.026-.128-.392-.192-.816-.192-1.271 0-.456.064-.883.192-1.278zm1.038 2.28c.1.292.238.535.414.732.176.195.382.346.618.449s.486.156.75.156.514-.053.75-.156.442-.254.618-.449c.176-.197.314-.44.414-.732s.15-.626.15-1.002c0-.377-.05-.71-.15-1.002-.1-.293-.238-.538-.414-.738-.176-.199-.382-.352-.618-.456s-.486-.156-.75-.156-.514.052-.75.156-.442.257-.618.456c-.176.2-.314.445-.414.738-.1.292-.15.625-.15 1.002 0 .376.05.71.15 1.002zM-180.722 434.193v1.308h.024c.248-.504.552-.875.912-1.115s.816-.352 1.368-.336v1.08c-.408 0-.756.056-1.044.168-.288.111-.521.275-.696.492-.176.215-.304.478-.384.785-.08.309-.12.662-.12 1.062v2.76h-1.02v-6.204h.96zM-171.831 440.397v-6.096h-2.208v-.816c.288 0 .568-.021.84-.066.272-.043.518-.125.738-.246.22-.119.406-.283.558-.491.152-.208.256-.472.312-.792h.78v8.508h-1.02zM-163.886 433.137c-.248-.232-.576-.348-.984-.348-.432 0-.78.105-1.044.317-.264.212-.47.479-.618.804s-.25.674-.306 1.051c-.056.375-.088.728-.096 1.056l.024.024c.24-.393.538-.676.894-.853.356-.176.766-.265 1.23-.265.408 0 .774.07 1.098.211.324.14.596.334.816.582.22.248.39.539.51.875.12.337.18.701.18 1.093 0 .312-.048.636-.144.972s-.254.643-.474.918c-.22.276-.512.504-.876.684-.364.181-.814.271-1.35.271-.632 0-1.14-.128-1.524-.384-.384-.256-.68-.584-.888-.984-.208-.399-.346-.84-.414-1.32-.068-.479-.102-.943-.102-1.392 0-.583.05-1.149.15-1.698.1-.547.27-1.033.51-1.457.24-.424.56-.764.96-1.021.4-.256.904-.384 1.512-.384.704 0 1.264.186 1.68.558s.656.91.72 1.614h-1.02c-.048-.385-.196-.691-.444-.924zm-1.848 2.838c-.216.1-.4.236-.552.408s-.266.376-.342.611c-.076.236-.114.486-.114.75s.04.512.12.744c.08.232.194.432.342.6s.332.303.552.402c.22.101.47.15.75.15s.526-.05.738-.15c.212-.1.39-.238.534-.414s.254-.378.33-.605c.076-.229.114-.467.114-.715 0-.264-.034-.514-.102-.75-.068-.235-.174-.439-.318-.611s-.324-.311-.54-.414-.468-.156-.756-.156-.54.05-.756.15zM-159.914 434.193v.841h.024c.168-.345.432-.595.792-.75.36-.156.756-.234 1.188-.234.48 0 .898.088 1.254.264s.652.414.888.714.414.646.534 1.038c.12.393.18.809.18 1.248s-.058.855-.174 1.248c-.116.393-.292.734-.528 1.025-.236.293-.532.522-.888.69-.356.168-.771.252-1.242.252-.152 0-.322-.017-.51-.048-.188-.032-.374-.084-.558-.156-.184-.072-.358-.17-.522-.294-.164-.124-.302-.278-.414-.462h-.024v3.191h-1.02v-8.567h1.02zm3.666 2.202c-.076-.275-.192-.521-.348-.738-.156-.216-.356-.388-.6-.516s-.53-.192-.858-.192c-.344 0-.636.068-.876.204-.24.137-.436.314-.588.534-.152.22-.262.47-.33.75s-.102.563-.102.853c0 .304.036.598.108.881.072.285.186.535.342.75.156.217.358.391.606.522.248.132.548.198.9.198s.646-.068.882-.204.426-.315.57-.54c.144-.224.248-.48.312-.768.064-.289.096-.584.096-.889 0-.286-.038-.57-.114-.845zM-154.347 434.193h1.308l1.488 2.172 1.548-2.172h1.224l-2.136 2.856 2.4 3.348h-1.308l-1.728-2.568-1.728 2.568h-1.236l2.328-3.264-2.16-2.94zM-144.339 436.581v.961h-3.468v-.961h3.468zM-140.487 440.397v-6.096h-2.208v-.816c.288 0 .568-.021.84-.066.272-.043.518-.125.738-.246.22-.119.406-.283.558-.491.152-.208.256-.472.312-.792h.78v8.508h-1.02zM-136.407 433.702c.112-.369.286-.687.522-.955.236-.268.53-.478.882-.629.352-.152.752-.229 1.2-.229.368 0 .714.054 1.038.162.324.107.606.264.846.468.24.204.43.458.57.762.14.304.21.656.21 1.056 0 .377-.058.709-.174.996-.116.289-.27.547-.462.774s-.412.435-.66.618-.504.359-.768.527l-.792.475c-.264.156-.506.322-.726.498-.22.176-.408.365-.564.57-.156.203-.258.438-.306.701h4.368v.9h-5.556c.04-.504.13-.934.27-1.29s.318-.666.534-.931c.216-.264.46-.495.732-.695.271-.199.556-.388.852-.564.36-.224.676-.43.948-.617s.498-.379.678-.57c.18-.191.316-.4.408-.624s.138-.483.138-.78c0-.231-.044-.441-.132-.63-.088-.188-.206-.35-.354-.485-.148-.137-.322-.24-.522-.312-.2-.072-.412-.107-.636-.107-.296 0-.55.062-.762.186s-.386.286-.522.486c-.136.199-.234.426-.294.678s-.086.506-.078.762h-1.02c-.024-.434.02-.834.132-1.201zM-129.867 435.249c.016-.336.056-.664.12-.983s.156-.624.276-.912c.12-.288.284-.54.492-.756s.47-.388.786-.517c.316-.127.694-.191 1.134-.191s.818.064 1.134.191c.316.129.578.301.786.517s.372.468.492.756.212.593.276.912.104.647.12.983.024.66.024.973-.008.636-.024.972-.056.664-.12.983c-.064.32-.156.623-.276.906-.12.285-.284.535-.492.75-.208.217-.468.387-.78.51-.312.125-.692.187-1.14.187-.44 0-.818-.062-1.134-.187-.316-.123-.578-.293-.786-.51-.208-.215-.372-.465-.492-.75-.12-.283-.212-.586-.276-.906-.064-.319-.104-.647-.12-.983s-.024-.659-.024-.972.008-.638.024-.973zm1.086 2.035c.02.396.084.768.192 1.115s.282.643.522.882c.24.24.576.36 1.008.36s.768-.12 1.008-.36c.24-.239.414-.534.522-.882.108-.348.172-.72.192-1.115.02-.396.03-.755.03-1.074l-.006-.69c-.004-.252-.024-.504-.06-.756-.036-.253-.088-.498-.156-.738-.068-.239-.168-.45-.3-.63-.132-.18-.298-.326-.498-.438-.2-.112-.444-.168-.732-.168s-.532.056-.732.168c-.2.111-.366.258-.498.438s-.232.391-.3.63c-.068.24-.12.485-.156.738-.036.252-.056.504-.06.756l-.006.69c0 .319.01.677.03 1.074zM-121.898 434.193v.841h.024c.168-.345.432-.595.792-.75.36-.156.756-.234 1.188-.234.48 0 .898.088 1.254.264s.652.414.888.714.414.646.534 1.038c.12.393.18.809.18 1.248s-.058.855-.174 1.248c-.116.393-.292.734-.528 1.025-.236.293-.532.522-.888.69-.356.168-.771.252-1.242.252-.152 0-.322-.017-.51-.048-.188-.032-.374-.084-.558-.156-.184-.072-.358-.17-.522-.294-.164-.124-.302-.278-.414-.462h-.024v3.191h-1.02v-8.567h1.02zm3.666 2.202c-.076-.275-.192-.521-.348-.738-.156-.216-.356-.388-.6-.516s-.53-.192-.858-.192c-.344 0-.636.068-.876.204-.24.137-.436.314-.588.534-.152.22-.262.47-.33.75s-.102.563-.102.853c0 .304.036.598.108.881.072.285.186.535.342.75.156.217.358.391.606.522.248.132.548.198.9.198s.646-.068.882-.204.426-.315.57-.54c.144-.224.248-.48.312-.768.064-.289.096-.584.096-.889-.001-.286-.039-.57-.114-.845zM-116.331 434.193h1.308l1.488 2.172 1.548-2.172h1.224l-2.136 2.856 2.4 3.348h-1.308l-1.728-2.568-1.728 2.568h-1.236l2.328-3.264-2.16-2.94z"/></g><g fill="#0072BC"><path d="M41.069 417.428v7.607h4.536v.961h-5.675v-8.568h1.139zM51.197 426.127c-.264 0-.475-.073-.631-.221-.155-.148-.233-.391-.233-.727-.28.336-.606.578-.978.727-.373.147-.774.221-1.207.221-.279 0-.543-.029-.791-.09-.248-.06-.467-.16-.654-.299-.188-.141-.336-.32-.443-.541-.109-.22-.162-.486-.162-.798 0-.352.06-.64.18-.864.119-.224.277-.405.474-.545.196-.141.42-.246.672-.318s.511-.133.774-.18c.279-.057.546-.099.798-.127.252-.027.474-.067.666-.119.192-.053.344-.129.456-.229.111-.1.168-.246.168-.438 0-.225-.042-.404-.126-.541-.084-.135-.192-.239-.324-.312-.132-.071-.28-.12-.444-.144-.164-.024-.326-.037-.485-.037-.433 0-.792.083-1.08.246-.288.164-.444.475-.468.931h-1.021c.017-.384.097-.708.24-.972s.336-.479.575-.643c.24-.164.517-.281.828-.354.312-.072.641-.108.984-.108.28 0 .559.021.834.06.276.041.526.123.75.246.225.125.404.299.54.522s.204.517.204.876v3.191c0 .24.014.416.042.529.028.111.122.168.282.168.088 0 .191-.021.312-.061v.792c-.176.109-.419.159-.732.159zm-1.427-3.125c-.209.044-.426.08-.654.107l-.69.096c-.231.037-.44.095-.624.174-.184.08-.334.195-.449.343-.117.147-.174.351-.174.606 0 .168.033.31.102.426.067.115.156.209.264.281s.236.125.385.156c.147.032.297.049.449.049.336 0 .624-.047.864-.139.239-.092.436-.208.588-.348.151-.141.265-.293.336-.457.071-.163.108-.317.108-.461v-1.045c-.13.098-.298.168-.505.212zM53.801 419.792v1.309h.023c.248-.504.553-.876.912-1.116.36-.239.816-.352 1.369-.336v1.08c-.408 0-.756.056-1.045.168-.287.112-.52.276-.695.492s-.305.478-.385.786c-.08.308-.119.662-.119 1.062v2.76h-1.021v-6.205h.961zM61.193 427.749c-.465.504-1.192.756-2.184.756-.289 0-.582-.032-.883-.096-.3-.064-.572-.168-.816-.312s-.445-.332-.605-.564-.248-.516-.264-.852h1.02c.008.184.066.34.174.468.108.128.24.231.396.312s.326.139.51.175.359.054.527.054c.337 0 .621-.059.853-.174.231-.116.425-.275.576-.48.151-.203.262-.449.33-.738.067-.287.103-.604.103-.947v-.408h-.024c-.177.385-.442.666-.798.846-.356.181-.734.271-1.135.271-.464 0-.867-.084-1.211-.252-.345-.168-.633-.394-.865-.679-.231-.283-.406-.615-.521-.996-.116-.379-.174-.781-.174-1.205 0-.368.048-.746.145-1.135.096-.387.256-.739.479-1.056.224-.315.521-.575.888-.78.368-.203.82-.306 1.355-.306.393 0 .752.087 1.08.259s.584.43.769.773h.013v-.889h.959v5.677c-.001 1.013-.234 1.774-.697 2.278zm-1.302-2.791c.236-.139.426-.323.57-.551.145-.229.25-.486.318-.774.067-.288.102-.576.102-.864 0-.271-.031-.54-.096-.805-.064-.264-.166-.502-.307-.713-.14-.213-.322-.383-.545-.51-.225-.129-.496-.193-.816-.193-.328 0-.608.062-.84.187-.232.124-.422.29-.57.498s-.256.448-.324.72c-.068.272-.102.557-.102.853 0 .28.027.56.084.84.056.28.152.534.287.763.137.228.316.412.541.551.224.141.504.211.84.211s.621-.073.858-.213zM67.816 425.6c-.464.352-1.048.527-1.752.527-.496 0-.926-.08-1.289-.239-.365-.16-.671-.384-.918-.672-.248-.288-.435-.632-.559-1.032s-.194-.836-.21-1.309c0-.471.071-.903.216-1.295.145-.393.346-.732.605-1.021s.568-.512.925-.672c.355-.16.745-.24 1.17-.24.552 0 1.01.114 1.374.343.363.228.656.518.876.869.22.353.372.736.456 1.152s.117.812.102 1.188h-4.644c-.009.272.024.53.096.774.072.244.188.46.349.647.159.188.363.338.611.451.248.111.54.168.876.168.433 0 .786-.101 1.062-.301.277-.199.459-.504.547-.912h1.008c-.137.698-.436 1.223-.901 1.574zm-.246-3.984c-.092-.216-.215-.402-.371-.558-.156-.156-.341-.28-.553-.372s-.445-.139-.701-.139c-.265 0-.503.047-.715.139s-.395.219-.546.378c-.151.16-.272.347-.36.558-.088.213-.14.438-.155.679h3.563c-.015-.241-.07-.468-.162-.685zM70.793 419.792v1.309h.023c.248-.504.553-.876.912-1.116.359-.239.816-.352 1.368-.336v1.08c-.408 0-.756.056-1.044.168s-.521.276-.696.492-.304.478-.384.786c-.08.308-.12.662-.12 1.062v2.76h-1.021v-6.205h.962zM23.693 435.092v-.9h1.044v-.924c0-.504.146-.887.438-1.146.291-.26.717-.39 1.277-.39l.33.024.33.072v.887l-.288-.065-.288-.019c-.248 0-.439.049-.576.145-.136.096-.203.28-.203.553v.863h1.199v.9h-1.199v5.304h-1.021v-5.304h-1.043zM27.725 436.022c.129-.396.32-.74.576-1.031.256-.293.572-.523.948-.691s.808-.252 1.296-.252c.496 0 .93.084 1.303.252.371.168.686.398.941.691.256.291.447.635.576 1.031.128.396.191.822.191 1.277 0 .457-.063.881-.191 1.272-.129.392-.32.734-.576 1.026s-.57.52-.941.684c-.373.164-.807.246-1.303.246-.488 0-.92-.082-1.296-.246s-.692-.392-.948-.684-.447-.635-.576-1.026c-.127-.392-.191-.815-.191-1.272-.001-.455.064-.881.191-1.277zm1.039 2.279c.1.293.237.537.414.732.176.196.381.346.617.45s.486.156.75.156.514-.052.75-.156.441-.254.618-.45c.176-.195.313-.439.414-.732.101-.291.149-.625.149-1.002 0-.375-.049-.709-.149-1.002-.101-.291-.238-.537-.414-.737-.177-.2-.382-.353-.618-.456s-.486-.156-.75-.156-.514.053-.75.156-.441.256-.617.456c-.177.2-.314.446-.414.737-.101.293-.15.627-.15 1.002-.001.377.049.711.15 1.002zM35.682 434.192v1.309h.023c.248-.504.553-.877.912-1.117.359-.239.816-.352 1.368-.336v1.08c-.408 0-.756.057-1.044.168-.288.113-.521.276-.696.492-.176.217-.304.479-.384.787-.08.307-.12.661-.12 1.062v2.76h-1.021v-6.204h.962zM44.572 440.396v-6.097h-2.207v-.815c.287 0 .567-.022.84-.065.271-.045.518-.127.738-.246.219-.121.405-.284.558-.492.151-.208.256-.473.312-.792h.78v8.508h-1.021zM48.653 433.7c.112-.367.286-.686.522-.953.235-.269.529-.479.881-.631.353-.151.752-.228 1.201-.228.367 0 .713.054 1.037.161.324.109.606.265.846.469.24.204.431.458.57.762.141.305.211.656.211 1.057 0 .375-.059.707-.175.996-.116.287-.271.545-.462.773s-.412.434-.66.618-.504.36-.768.528l-.793.474c-.264.155-.506.322-.725.498-.221.176-.408.366-.564.569-.156.205-.258.438-.307.703h4.369v.899h-5.557c.04-.504.13-.935.27-1.29.141-.355.318-.666.534-.93s.46-.496.732-.696c.271-.2.556-.388.852-.563.36-.225.677-.431.948-.619.271-.188.498-.377.678-.569s.316-.399.408-.624.139-.484.139-.779c0-.232-.045-.443-.133-.631s-.206-.35-.354-.486c-.148-.135-.322-.24-.522-.312s-.412-.108-.636-.108c-.297 0-.551.062-.762.187-.213.124-.387.286-.522.485-.136.201-.233.427-.294.679s-.086.506-.078.762h-1.02c-.022-.434.022-.833.134-1.201zM55.193 435.249c.016-.336.056-.664.119-.984.064-.32.156-.624.276-.912s.284-.54.492-.756c.208-.217.47-.389.786-.516.316-.129.693-.192 1.134-.192s.817.063 1.134.192c.316.127.578.299.786.516.208.216.372.468.492.756s.212.592.276.912c.063.32.104.648.119.984.017.336.024.66.024.972s-.008.636-.024.972c-.016.336-.056.664-.119.984-.064.32-.156.622-.276.906-.12.283-.284.533-.492.75-.208.215-.468.386-.78.51-.312.123-.691.186-1.14.186-.44 0-.817-.062-1.134-.186-.316-.124-.578-.295-.786-.51-.208-.217-.372-.467-.492-.75-.12-.284-.212-.586-.276-.906-.063-.32-.104-.648-.119-.984-.017-.336-.024-.66-.024-.972s.008-.637.024-.972zm1.086 2.033c.02.396.084.768.191 1.116.108.349.282.642.522.882.239.24.575.36 1.008.36s.769-.12 1.009-.36c.239-.24.413-.533.521-.882.107-.349.172-.72.191-1.116.02-.396.03-.754.03-1.074l-.006-.689c-.005-.252-.024-.504-.06-.756-.037-.252-.088-.498-.156-.738s-.168-.449-.301-.63c-.131-.181-.297-.325-.498-.438-.199-.111-.443-.168-.731-.168s-.532.057-.731.168c-.201.113-.367.258-.498.438-.133.181-.232.39-.301.63s-.119.486-.156.738c-.035.252-.056.504-.06.756l-.006.689c.002.32.012.678.032 1.074zM63.161 434.192v.84h.024c.168-.344.432-.594.791-.75.36-.156.756-.234 1.188-.234.479 0 .897.089 1.254.265.356.177.651.414.888.714.236.301.414.646.534 1.038s.181.808.181 1.248-.059.856-.175 1.248-.292.733-.528 1.026c-.235.291-.531.521-.887.689-.357.168-.771.252-1.242.252-.152 0-.322-.016-.511-.048s-.374-.084-.558-.155c-.184-.072-.358-.17-.521-.295-.164-.123-.303-.277-.414-.462h-.024v3.192h-1.021v-8.568h1.021zm3.666 2.202c-.076-.276-.192-.522-.349-.738s-.355-.388-.6-.516-.53-.192-.857-.192c-.345 0-.637.068-.877.204s-.436.313-.588.534-.262.471-.33.75c-.068.28-.102.564-.102.852 0 .305.036.599.107.883.072.283.187.533.342.75.156.216.358.39.607.521.247.133.547.198.899.198s.646-.067.882-.204c.236-.136.426-.316.57-.54.144-.224.248-.479.312-.769.063-.287.097-.584.097-.887.001-.288-.038-.57-.113-.846zM68.729 434.192h1.309l1.487 2.172 1.548-2.172h1.225l-2.137 2.855 2.4 3.349h-1.309l-1.728-2.567-1.728 2.567h-1.236l2.328-3.265-2.159-2.939zM84.629 436.952v.816h-2.616v2.628h-.815v-2.628h-2.616v-.816h2.616v-2.627h.815v2.627h2.616z"/></g><path fill="#100E0F" d="M55.689 126.487h-21.972c-.567 0-1.027.46-1.027 1.026v10.743c0 .566.46 1.029 1.027 1.029h8.57v13.347s-1.924.656-7.244.656c-6.279 0-15.048-2.294-15.048-21.578 0-19.289 9.131-21.826 17.704-21.826 7.421 0 10.618 1.307 12.653 1.936.639.196 1.23-.44 1.23-1.007l2.451-10.38c0-.267-.091-.586-.393-.802-.826-.59-5.867-3.41-18.599-3.41-14.67 0-29.716 6.241-29.716 36.24 0 30.003 17.227 34.473 31.743 34.473 12.02 0 19.312-5.136 19.312-5.136.302-.166.333-.587.333-.779v-33.506c.002-.566-.457-1.026-1.024-1.026z"/><g fill="#100E0F"><path d="M77.036 111.31c0-4.454-3.572-8.055-7.979-8.055-4.402 0-7.977 3.601-7.977 8.055 0 4.451 3.574 8.061 7.977 8.061 4.407 0 7.979-3.61 7.979-8.061zM76.15 153.899v-29.885c0-.567-.457-1.03-1.022-1.03h-12.334c-.565 0-1.071.583-1.071 1.151v42.814c0 1.258.784 1.632 1.798 1.632h11.112c1.219 0 1.518-.599 1.518-1.653-.001-2.294-.001-11.284-.001-13.029z"/></g><path fill="#100E0F" d="M111.709 122.978h-9.281l-.014-12.261c0-.465-.239-.695-.774-.695h-12.648c-.492 0-.756.216-.756.688v12.67s-6.338 1.53-6.767 1.654c-.426.123-.741.518-.741.986v7.962c0 .572.457 1.035 1.023 1.035h6.484v19.153c0 14.227 9.979 15.623 16.714 15.623 3.076 0 6.757-.987 7.364-1.212.367-.136.581-.516.581-.929l.011-8.759c0-.57-.482-1.033-1.026-1.033-.54 0-1.924.221-3.35.221-4.558 0-6.103-2.119-6.103-4.863v-18.201h9.281c.565 0 1.023-.463 1.023-1.035v-9.973c.002-.571-.456-1.031-1.021-1.031z"/></svg>