<?xml version="1.0" encoding="UTF-8" standalone="no"?>
<svg width="547px" height="485px" viewBox="0 0 547 485" version="1.1" xmlns="http://www.w3.org/2000/svg" xmlns:xlink="http://www.w3.org/1999/xlink" xmlns:sketch="http://www.bohemiancoding.com/sketch/ns">
    <!-- Generator: Sketch 3.4 (15575) - http://www.bohemiancoding.com/sketch -->
    <title>PostgreSQL_logo.1color_white</title>
    <desc>Created with Sketch.</desc>
    <defs></defs>
    <g id="Page-1" stroke="none" stroke-width="1" fill="none" fill-rule="evenodd" sketch:type="MSPage">
        <g id="PostgreSQL_logo.1color_white" sketch:type="MSLayerGroup" transform="translate(4.000000, 2.000000)" stroke="#FFFFFF">
            <rect id="rect3653" stroke-width="0.80000001" fill="#0093C6" sketch:type="MSShapeGroup" x="0.505753" y="0.8527441" width="537.71851" height="475.25626"></rect>
            <g id="g3619" transform="translate(99.000000, 71.000000)" fill="#FFFFFF" sketch:type="MSShapeGroup">
                <path d="M331.006806,218.024854 C287.691194,226.958337 284.713472,212.295061 284.713472,212.295061 C330.447944,144.443295 349.566333,58.3156 333.067444,37.2363341 C288.057167,-20.263922 210.142111,6.92999268 208.841833,7.63599268 L208.423333,7.71089756 C199.865611,5.93470488 190.288333,4.87656585 179.524444,4.70092683 C159.924694,4.37978293 145.057611,9.83836829 133.776194,18.392161 C133.776194,18.392161 -5.21661111,-38.8584122 1.24775,90.3955512 C2.62294444,117.89339 40.6659722,298.456334 86.0422222,243.917834 C102.627222,223.975056 118.651639,207.112849 118.651639,207.112849 C126.610889,212.399239 136.139083,215.095815 146.127972,214.127217 L146.903833,213.468571 C146.662722,215.944737 146.772944,218.366661 147.214694,221.23371 C135.525111,234.292127 138.960083,236.584905 115.592111,241.394315 C91.9468611,246.266576 105.837444,254.940905 114.906667,257.207854 C125.901333,259.956949 151.337694,263.851141 168.524611,239.795483 L167.839167,242.540273 C172.419417,246.208029 175.635667,266.398768 175.096611,284.701388 C174.557556,303.004868 174.197611,315.570807 177.806528,325.385929 C181.415444,335.201051 185.012306,357.285076 215.731583,350.703778 C241.400444,345.203866 254.702028,330.951276 256.552556,307.177156 C257.86575,290.275344 260.837444,292.773895 261.025167,277.662912 L263.408722,270.509066 C266.157389,247.597644 263.845306,240.206168 279.659611,243.644044 L283.50275,243.981546 C295.142389,244.511046 310.376306,242.109785 319.317222,237.954717 C338.569944,229.021234 349.988278,214.105693 331.005083,218.024854 L331.006806,218.024854 L331.006806,218.024854 Z" id="path2464" stroke-width="12.4651003" fill-opacity="0"></path>
                <path d="M170.384611,231.158176 C169.191972,273.790244 170.684278,316.719349 174.856361,327.152651 C179.031028,337.585954 187.965056,357.879149 218.686917,351.298712 C244.353194,345.797078 253.691944,335.150254 257.744333,311.649924 C260.728944,294.359812 266.482889,246.34148 267.220861,236.503112" id="path2466" stroke-width="12.4651003" fill-opacity="0"></path>
                <path d="M133.561778,17.439922 C133.561778,17.439922 -5.52575,-39.3982439 0.940333333,89.8557195 C2.31552778,117.353559 40.3611389,297.922529 85.7365278,243.381446 C102.318083,223.436085 117.314333,207.79302 117.314333,207.79302" id="path2468" stroke-width="12.4651003" fill-opacity="0"></path>
                <path d="M208.689417,7.06602683 C203.874944,8.57531707 286.058528,-22.9725512 332.764333,36.6982244 C349.262361,57.7783512 330.143972,143.906046 284.410361,211.759534" id="path2470" stroke-width="12.4651003" fill-opacity="0"></path>
                <path d="M284.4095,211.759534 C284.4095,211.759534 287.389806,226.427115 330.706278,217.487605 C349.685167,213.568444 338.263389,228.485707 319.014972,237.423495 C303.217889,244.753841 267.80125,246.63249 267.222583,236.503112 C265.733722,210.368198 285.863056,218.308115 284.410361,211.759534 C283.097167,205.861851 274.095111,200.073512 268.140528,185.639256 C262.942,173.0406 196.843972,76.425361 286.471,90.7743805 C289.754417,90.0950707 263.095278,5.53607317 179.217028,4.16109512 C95.3577222,2.78611707 98.1089722,107.273256 98.1089722,107.273256" id="path2472" stroke-width="12.4651003" fill-opacity="0"></path>
                <path d="M146.909,220.697322 C135.217694,233.754878 138.656111,236.047656 115.286417,240.858788 C91.6411667,245.73191 105.533472,254.404517 114.600111,256.670605 C125.594778,259.421422 151.031139,263.315615 168.218056,239.253929 C173.451889,231.927888 168.187056,220.238422 160.997639,217.258585 C157.523917,215.819895 152.879083,214.017012 146.909,220.697322 L146.909,220.697322 L146.909,220.697322 Z" id="path2474" stroke-width="12.4651003" fill-opacity="0"></path>
                <path d="M146.143472,220.469163 C144.965472,212.791844 148.666528,203.656032 152.632806,192.96788 C158.593417,176.931349 172.346222,160.892234 161.344667,110.022351 C153.144306,72.1144561 98.1425556,102.133232 98.1081111,107.273256 C98.0745278,112.411559 100.595861,133.326378 97.1893056,157.681656 C92.74425,189.462849 117.415083,216.341646 145.824,213.59169" id="path2476" stroke-width="12.4651003" fill-opacity="0"></path>
                <path d="M133.056306,106.502683 C132.808306,108.258212 136.270833,112.94278 140.785639,113.56871 C145.292694,114.197222 149.150472,110.536354 149.395028,108.782546 C149.639583,107.027017 146.181361,105.093266 141.664833,104.464754 C137.155194,103.83538 133.295694,104.751459 133.057167,106.502683 L133.056306,106.502683 L133.056306,106.502683 Z" id="path2478" stroke-width="4.15500021"></path>
                <path d="M270.338083,102.923607 C270.582639,104.679137 267.124417,109.363705 262.60875,109.989634 C258.09825,110.618146 254.240472,106.957278 253.993333,105.203471 C253.754806,103.447941 257.213889,101.51419 261.72525,100.885678 C266.236611,100.257166 270.093528,101.172383 270.338083,102.924468 L270.338083,102.923607 L270.338083,102.923607 Z" id="path2480" stroke-width="2.0775001"></path>
                <path d="M286.471,90.7743805 C287.214139,104.544824 283.504472,113.924293 283.036889,128.583263 C282.344556,149.890688 293.197139,174.278683 276.844639,198.696812" id="path2482" stroke-width="12.4651003" fill-opacity="0"></path>
            </g>
        </g>
    </g>
</svg>