<?xml version="1.0" encoding="utf-8"?>
<!-- Generator: Adobe Illustrator 16.0.0, SVG Export Plug-In . SVG Version: 6.00 Build 0)  -->
<!DOCTYPE svg PUBLIC "-//W3C//DTD SVG 1.1//EN" "http://www.w3.org/Graphics/SVG/1.1/DTD/svg11.dtd">
<svg version="1.1" id="Layer_1" xmlns="http://www.w3.org/2000/svg" xmlns:xlink="http://www.w3.org/1999/xlink" x="0px" y="0px"
	 width="277.334px" height="296.667px" viewBox="0 0 277.334 296.667" enable-background="new 0 0 277.334 296.667"
	 xml:space="preserve">
<g>
	<path fill="#B2B2B2" d="M137.923,7L4,54.13l21.163,175.462l112.902,62.054l113.486-62.895l21.154-175.455L137.923,7z M137.923,7"/>
	<path fill="#B52E31" d="M259.348,63.437L137.61,21.924V276.82l102.022-56.462L259.348,63.437z M259.348,63.437"/>
	<path fill="#E23237" d="M19.028,64.186l18.134,156.923l100.447,55.713V21.918L19.028,64.186z M19.028,64.186"/>
	<path fill="#F2F2F2" d="M165.828,148.705l-27.996-58.464l-24.646,58.464H165.828z M176.502,173.288h-74.21l-16.603,41.526
		l-30.881,0.57l82.804-184.206l85.689,184.206H194.68L176.502,173.288z M176.502,173.288"/>
	<path fill="#B2B2B2" d="M137.61,31.179l0.221,59.062l27.967,58.509h-28.125l-0.063,24.5l38.89,0.038l18.178,42.104l29.549,0.549
		L137.61,31.179z M137.61,31.179"/>
</g>
</svg>
