<?xml version="1.0" encoding="utf-8"?>
<!-- Generator: Adobe Illustrator 16.0.0, SVG Export Plug-In . SVG Version: 6.00 Build 0)  -->
<!DOCTYPE svg PUBLIC "-//W3C//DTD SVG 1.1//EN" "http://www.w3.org/Graphics/SVG/1.1/DTD/svg11.dtd">
<svg version="1.1" id="Layer_1" xmlns="http://www.w3.org/2000/svg" xmlns:xlink="http://www.w3.org/1999/xlink" x="0px" y="0px"
	 width="127.332px" height="173.333px" viewBox="0 0 127.332 173.333" enable-background="new 0 0 127.332 173.333"
	 xml:space="preserve">
<rect x="-294.564" y="214.092" width="530.973" height="275.986"/>
<path fill-rule="evenodd" clip-rule="evenodd" fill="#191717" d="M66.36,3.45c-30.322,0-54.909,24.584-54.909,54.913
	c0,24.258,15.731,44.839,37.554,52.101c2.746,0.504,3.747-1.191,3.747-2.646c0-1.304-0.047-4.757-0.073-9.339
	c-15.274,3.318-18.497-7.361-18.497-7.361c-2.498-6.344-6.097-8.032-6.097-8.032c-4.987-3.407,0.379-3.338,0.379-3.338
	c5.511,0.389,8.407,5.659,8.407,5.659c4.898,8.391,12.852,5.968,15.982,4.562c0.497-3.549,1.919-5.969,3.486-7.341
	c-12.193-1.386-25.013-6.097-25.013-27.139c0-5.995,2.14-10.896,5.652-14.735c-0.562-1.389-2.449-6.972,0.537-14.53
	c0,0,4.612-1.478,15.104,5.629c4.378-1.218,9.075-1.831,13.747-1.85c4.661,0.02,9.358,0.632,13.747,1.85
	c10.481-7.107,15.083-5.629,15.083-5.629c2.996,7.559,1.113,13.142,0.547,14.53c3.519,3.839,5.643,8.74,5.643,14.735
	c0,21.095-12.839,25.736-25.071,27.096c1.975,1.695,3.729,5.046,3.729,10.169c0,7.341-0.069,13.263-0.069,15.063
	c0,1.468,0.991,3.177,3.779,2.64c21.799-7.274,37.518-27.843,37.518-52.094C121.272,28.034,96.686,3.45,66.36,3.45z"/>
<g>
	<g>
		
			<line fill="none" stroke="#1981BC" stroke-linecap="round" stroke-miterlimit="10" x1="-69.666" y1="-9.41" x2="-69.666" y2="-8.91"/>
		
			<line fill="none" stroke="#1981BC" stroke-linecap="round" stroke-miterlimit="10" stroke-dasharray="0.9999,1.9999" x1="-69.666" y1="-6.91" x2="-69.666" y2="127.083"/>
		
			<line fill="none" stroke="#1981BC" stroke-linecap="round" stroke-miterlimit="10" x1="-69.666" y1="128.083" x2="-69.666" y2="128.583"/>
	</g>
</g>
<g>
	<path fill="#0072BC" d="M-161.288,142.599c-0.38-0.276-0.866-0.414-1.458-0.414c-0.24,0-0.476,0.024-0.708,0.071
		c-0.232,0.049-0.438,0.129-0.618,0.24c-0.18,0.113-0.324,0.263-0.432,0.451c-0.108,0.188-0.162,0.422-0.162,0.701
		c0,0.264,0.078,0.479,0.234,0.643c0.156,0.164,0.364,0.298,0.624,0.401c0.26,0.104,0.554,0.19,0.882,0.259
		c0.328,0.067,0.662,0.142,1.002,0.221c0.34,0.08,0.674,0.175,1.002,0.283c0.328,0.107,0.622,0.254,0.882,0.438
		c0.26,0.184,0.468,0.416,0.624,0.695c0.156,0.281,0.234,0.633,0.234,1.057c0,0.456-0.102,0.846-0.306,1.17
		s-0.466,0.588-0.786,0.792c-0.32,0.204-0.678,0.353-1.074,0.444s-0.79,0.138-1.182,0.138c-0.48,0-0.934-0.06-1.362-0.18
		c-0.428-0.12-0.804-0.302-1.128-0.546c-0.324-0.244-0.58-0.557-0.768-0.937s-0.282-0.829-0.282-1.35h1.08
		c0,0.36,0.07,0.67,0.21,0.93c0.14,0.261,0.324,0.474,0.552,0.642s0.494,0.293,0.798,0.373c0.304,0.08,0.616,0.119,0.936,0.119
		c0.256,0,0.514-0.023,0.774-0.072c0.26-0.047,0.494-0.129,0.702-0.246c0.208-0.115,0.376-0.273,0.504-0.473
		c0.128-0.201,0.192-0.457,0.192-0.769c0-0.296-0.078-0.536-0.234-0.72c-0.156-0.184-0.364-0.334-0.624-0.45
		c-0.26-0.116-0.554-0.21-0.882-0.282c-0.328-0.072-0.662-0.146-1.002-0.223c-0.34-0.075-0.674-0.163-1.002-0.264
		c-0.328-0.1-0.623-0.231-0.882-0.396s-0.468-0.376-0.624-0.636c-0.156-0.26-0.234-0.586-0.234-0.979
		c0-0.432,0.088-0.806,0.264-1.122c0.176-0.315,0.41-0.575,0.702-0.78c0.292-0.203,0.624-0.355,0.996-0.455
		c0.372-0.101,0.754-0.15,1.146-0.15c0.44,0,0.848,0.053,1.224,0.156s0.706,0.268,0.99,0.492c0.284,0.224,0.508,0.506,0.672,0.846
		c0.164,0.34,0.254,0.746,0.27,1.218h-1.08C-160.687,143.321-160.908,142.875-161.288,142.599z"/>
	<path fill="#0072BC" d="M-157.01,143.793v0.912h0.024c0.464-0.705,1.132-1.057,2.004-1.057c0.384,0,0.732,0.08,1.044,0.24
		s0.532,0.432,0.66,0.816c0.208-0.336,0.482-0.596,0.822-0.78c0.34-0.185,0.714-0.276,1.122-0.276c0.312,0,0.594,0.034,0.846,0.102
		c0.252,0.068,0.468,0.175,0.648,0.318c0.18,0.145,0.32,0.33,0.42,0.559c0.1,0.228,0.15,0.502,0.15,0.822v4.547h-1.02v-4.067
		c0-0.192-0.017-0.372-0.048-0.54s-0.092-0.314-0.18-0.438c-0.088-0.125-0.21-0.223-0.366-0.295s-0.358-0.107-0.606-0.107
		c-0.504,0-0.9,0.144-1.188,0.432s-0.432,0.672-0.432,1.152v3.863h-1.02v-4.067c0-0.2-0.018-0.384-0.054-0.552
		c-0.036-0.168-0.098-0.314-0.186-0.438c-0.088-0.124-0.206-0.22-0.354-0.288c-0.148-0.068-0.338-0.102-0.57-0.102
		c-0.296,0-0.55,0.06-0.762,0.18c-0.212,0.12-0.384,0.264-0.516,0.432s-0.228,0.342-0.288,0.522s-0.09,0.33-0.09,0.45v3.863h-1.02
		v-6.203H-157.01z"/>
	<path fill="#0072BC" d="M-142.97,150.129c-0.264,0-0.474-0.074-0.63-0.223c-0.156-0.147-0.234-0.39-0.234-0.726
		c-0.28,0.336-0.606,0.578-0.978,0.726c-0.372,0.148-0.774,0.223-1.206,0.223c-0.28,0-0.544-0.03-0.792-0.09
		c-0.248-0.061-0.466-0.16-0.654-0.301c-0.188-0.14-0.336-0.319-0.444-0.539c-0.108-0.221-0.162-0.486-0.162-0.799
		c0-0.352,0.06-0.64,0.18-0.863c0.12-0.225,0.278-0.406,0.474-0.547c0.196-0.14,0.42-0.246,0.672-0.318
		c0.252-0.071,0.51-0.131,0.774-0.18c0.28-0.056,0.546-0.098,0.798-0.125c0.252-0.028,0.474-0.068,0.666-0.121
		c0.192-0.051,0.344-0.127,0.456-0.228c0.112-0.101,0.168-0.246,0.168-0.438c0-0.223-0.042-0.403-0.126-0.539
		c-0.084-0.137-0.192-0.24-0.324-0.312s-0.28-0.12-0.444-0.145c-0.164-0.023-0.326-0.035-0.486-0.035
		c-0.432,0-0.792,0.082-1.08,0.246s-0.444,0.474-0.468,0.93h-1.02c0.016-0.384,0.096-0.708,0.24-0.973
		c0.144-0.264,0.336-0.478,0.576-0.642c0.24-0.163,0.516-0.282,0.828-0.354c0.312-0.071,0.64-0.107,0.984-0.107
		c0.28,0,0.558,0.02,0.834,0.061c0.276,0.039,0.526,0.121,0.75,0.246c0.224,0.123,0.404,0.298,0.54,0.521
		c0.136,0.225,0.204,0.516,0.204,0.876v3.192c0,0.24,0.014,0.416,0.042,0.527c0.028,0.112,0.122,0.168,0.282,0.168
		c0.088,0,0.192-0.02,0.312-0.06v0.792C-142.415,150.077-142.658,150.129-142.97,150.129z M-144.398,147.002
		c-0.208,0.045-0.426,0.08-0.654,0.108s-0.458,0.06-0.69,0.097c-0.232,0.035-0.44,0.094-0.624,0.174
		c-0.185,0.08-0.334,0.193-0.45,0.342c-0.116,0.148-0.174,0.35-0.174,0.605c0,0.168,0.034,0.311,0.102,0.426
		c0.068,0.117,0.156,0.211,0.264,0.283c0.108,0.071,0.236,0.123,0.384,0.155c0.148,0.032,0.298,0.048,0.45,0.048
		c0.336,0,0.624-0.045,0.864-0.138c0.24-0.092,0.436-0.208,0.588-0.349c0.152-0.139,0.264-0.291,0.336-0.455
		s0.108-0.318,0.108-0.463v-1.043C-144.022,146.889-144.19,146.959-144.398,147.002z"/>
	<path fill="#0072BC" d="M-140.21,141.429v8.567h-1.02v-8.567H-140.21z"/>
	<path fill="#0072BC" d="M-137.546,141.429v8.567h-1.02v-8.567H-137.546z"/>
	<path fill="#0072BC" d="M-192.71,159.092v-0.899h1.044v-0.924c0-0.504,0.146-0.886,0.438-1.146s0.718-0.391,1.278-0.391
		c0.096,0,0.206,0.008,0.33,0.023c0.124,0.017,0.234,0.041,0.33,0.072v0.889c-0.088-0.032-0.184-0.055-0.288-0.066
		s-0.2-0.018-0.288-0.018c-0.248,0-0.44,0.048-0.576,0.144c-0.136,0.097-0.204,0.28-0.204,0.552v0.864h1.2v0.899h-1.2v5.305h-1.02
		v-5.305H-192.71z"/>
	<path fill="#0072BC" d="M-188.678,160.023c0.128-0.396,0.32-0.739,0.576-1.032c0.256-0.291,0.572-0.521,0.948-0.689
		s0.808-0.252,1.296-0.252c0.496,0,0.93,0.084,1.302,0.252s0.686,0.398,0.942,0.689c0.256,0.293,0.448,0.637,0.576,1.032
		c0.128,0.396,0.192,0.822,0.192,1.278c0,0.455-0.064,0.88-0.192,1.271c-0.128,0.393-0.32,0.734-0.576,1.026
		c-0.256,0.292-0.57,0.521-0.942,0.685c-0.372,0.163-0.806,0.245-1.302,0.245c-0.488,0-0.92-0.082-1.296-0.245
		c-0.376-0.164-0.692-0.393-0.948-0.685c-0.256-0.292-0.448-0.634-0.576-1.026c-0.128-0.392-0.192-0.816-0.192-1.271
		C-188.87,160.845-188.806,160.418-188.678,160.023z M-187.64,162.303c0.1,0.292,0.238,0.535,0.414,0.732
		c0.176,0.195,0.382,0.346,0.618,0.449s0.486,0.156,0.75,0.156c0.264,0,0.514-0.053,0.75-0.156s0.442-0.254,0.618-0.449
		c0.176-0.197,0.314-0.44,0.414-0.732s0.15-0.626,0.15-1.002c0-0.377-0.05-0.71-0.15-1.002c-0.1-0.293-0.238-0.538-0.414-0.738
		c-0.176-0.199-0.382-0.352-0.618-0.456s-0.486-0.156-0.75-0.156c-0.264,0-0.514,0.052-0.75,0.156s-0.442,0.257-0.618,0.456
		c-0.176,0.2-0.314,0.445-0.414,0.738c-0.1,0.292-0.15,0.625-0.15,1.002C-187.79,161.677-187.74,162.011-187.64,162.303z"/>
	<path fill="#0072BC" d="M-180.722,158.193v1.308h0.024c0.248-0.504,0.552-0.875,0.912-1.115s0.816-0.352,1.368-0.336v1.08
		c-0.408,0-0.756,0.056-1.044,0.168c-0.288,0.111-0.521,0.275-0.696,0.492c-0.176,0.215-0.304,0.478-0.384,0.785
		c-0.08,0.309-0.12,0.662-0.12,1.062v2.76h-1.02v-6.204H-180.722z"/>
	<path fill="#0072BC" d="M-171.831,164.397v-6.096h-2.208v-0.816c0.288,0,0.568-0.021,0.84-0.066
		c0.272-0.043,0.518-0.125,0.738-0.246c0.22-0.119,0.406-0.283,0.558-0.491c0.152-0.208,0.256-0.472,0.312-0.792h0.78v8.508
		H-171.831z"/>
	<path fill="#0072BC" d="M-163.886,157.137c-0.248-0.232-0.576-0.348-0.984-0.348c-0.432,0-0.78,0.105-1.044,0.317
		c-0.264,0.212-0.47,0.479-0.618,0.804s-0.25,0.674-0.306,1.051c-0.056,0.375-0.088,0.728-0.096,1.056l0.024,0.024
		c0.24-0.393,0.538-0.676,0.894-0.853c0.356-0.176,0.766-0.265,1.23-0.265c0.408,0,0.774,0.07,1.098,0.211
		c0.324,0.14,0.596,0.334,0.816,0.582c0.22,0.248,0.39,0.539,0.51,0.875c0.12,0.337,0.18,0.701,0.18,1.093
		c0,0.312-0.048,0.636-0.144,0.972s-0.254,0.643-0.474,0.918c-0.22,0.276-0.512,0.504-0.876,0.684
		c-0.364,0.181-0.814,0.271-1.35,0.271c-0.632,0-1.14-0.128-1.524-0.384c-0.384-0.256-0.68-0.584-0.888-0.984
		c-0.208-0.399-0.346-0.84-0.414-1.32c-0.068-0.479-0.102-0.943-0.102-1.392c0-0.583,0.05-1.149,0.15-1.698
		c0.1-0.547,0.27-1.033,0.51-1.457c0.24-0.424,0.56-0.764,0.96-1.021c0.4-0.256,0.904-0.384,1.512-0.384
		c0.704,0,1.264,0.186,1.68,0.558s0.656,0.91,0.72,1.614h-1.02C-163.49,157.676-163.638,157.37-163.886,157.137z M-165.734,159.975
		c-0.216,0.1-0.4,0.236-0.552,0.408s-0.266,0.376-0.342,0.611c-0.076,0.236-0.114,0.486-0.114,0.75s0.04,0.512,0.12,0.744
		c0.08,0.232,0.194,0.432,0.342,0.6s0.332,0.303,0.552,0.402c0.22,0.101,0.47,0.15,0.75,0.15c0.28,0,0.526-0.05,0.738-0.15
		c0.212-0.1,0.39-0.238,0.534-0.414s0.254-0.378,0.33-0.605c0.076-0.229,0.114-0.467,0.114-0.715c0-0.264-0.034-0.514-0.102-0.75
		c-0.068-0.235-0.174-0.439-0.318-0.611s-0.324-0.311-0.54-0.414s-0.468-0.156-0.756-0.156S-165.518,159.875-165.734,159.975z"/>
	<path fill="#0072BC" d="M-159.914,158.193v0.841h0.024c0.168-0.345,0.432-0.595,0.792-0.75c0.36-0.156,0.756-0.234,1.188-0.234
		c0.48,0,0.898,0.088,1.254,0.264s0.652,0.414,0.888,0.714c0.236,0.3,0.414,0.646,0.534,1.038c0.12,0.393,0.18,0.809,0.18,1.248
		s-0.058,0.855-0.174,1.248c-0.116,0.393-0.292,0.734-0.528,1.025c-0.236,0.293-0.532,0.522-0.888,0.69
		c-0.356,0.168-0.771,0.252-1.242,0.252c-0.152,0-0.322-0.017-0.51-0.048c-0.188-0.032-0.374-0.084-0.558-0.156
		c-0.184-0.072-0.358-0.17-0.522-0.294c-0.164-0.124-0.302-0.278-0.414-0.462h-0.024v3.191h-1.02v-8.567H-159.914z
		 M-156.248,160.395c-0.076-0.275-0.192-0.521-0.348-0.738c-0.156-0.216-0.356-0.388-0.6-0.516s-0.53-0.192-0.858-0.192
		c-0.344,0-0.636,0.068-0.876,0.204c-0.24,0.137-0.436,0.314-0.588,0.534c-0.152,0.22-0.262,0.47-0.33,0.75
		c-0.068,0.28-0.102,0.563-0.102,0.853c0,0.304,0.036,0.598,0.108,0.881c0.072,0.285,0.186,0.535,0.342,0.75
		c0.156,0.217,0.358,0.391,0.606,0.522c0.248,0.132,0.548,0.198,0.9,0.198c0.352,0,0.646-0.068,0.882-0.204s0.426-0.315,0.57-0.54
		c0.144-0.224,0.248-0.48,0.312-0.768c0.064-0.289,0.096-0.584,0.096-0.889C-156.134,160.954-156.172,160.67-156.248,160.395z"/>
	<path fill="#0072BC" d="M-154.347,158.193h1.308l1.488,2.172l1.548-2.172h1.224l-2.136,2.856l2.4,3.348h-1.308l-1.728-2.568
		l-1.728,2.568h-1.236l2.328-3.264L-154.347,158.193z"/>
	<path fill="#0072BC" d="M-144.339,160.581v0.961h-3.468v-0.961H-144.339z"/>
	<path fill="#0072BC" d="M-140.487,164.397v-6.096h-2.208v-0.816c0.288,0,0.568-0.021,0.84-0.066
		c0.272-0.043,0.518-0.125,0.738-0.246c0.22-0.119,0.406-0.283,0.558-0.491c0.152-0.208,0.256-0.472,0.312-0.792h0.78v8.508
		H-140.487z"/>
	<path fill="#0072BC" d="M-136.407,157.702c0.112-0.369,0.286-0.687,0.522-0.955c0.236-0.268,0.53-0.478,0.882-0.629
		c0.352-0.152,0.752-0.229,1.2-0.229c0.368,0,0.714,0.054,1.038,0.162c0.324,0.107,0.606,0.264,0.846,0.468
		c0.24,0.204,0.43,0.458,0.57,0.762c0.14,0.304,0.21,0.656,0.21,1.056c0,0.377-0.058,0.709-0.174,0.996
		c-0.116,0.289-0.27,0.547-0.462,0.774s-0.412,0.435-0.66,0.618s-0.504,0.359-0.768,0.527c-0.264,0.16-0.528,0.318-0.792,0.475
		c-0.264,0.156-0.506,0.322-0.726,0.498c-0.22,0.176-0.408,0.365-0.564,0.57c-0.156,0.203-0.258,0.438-0.306,0.701h4.368v0.9h-5.556
		c0.04-0.504,0.13-0.934,0.27-1.29c0.14-0.356,0.318-0.666,0.534-0.931c0.216-0.264,0.46-0.495,0.732-0.695
		c0.271-0.199,0.556-0.388,0.852-0.564c0.36-0.224,0.676-0.43,0.948-0.617s0.498-0.379,0.678-0.57c0.18-0.191,0.316-0.4,0.408-0.624
		s0.138-0.483,0.138-0.78c0-0.231-0.044-0.441-0.132-0.63c-0.088-0.188-0.206-0.35-0.354-0.485c-0.148-0.137-0.322-0.24-0.522-0.312
		c-0.2-0.072-0.412-0.107-0.636-0.107c-0.296,0-0.55,0.062-0.762,0.186s-0.386,0.286-0.522,0.486
		c-0.136,0.199-0.234,0.426-0.294,0.678s-0.086,0.506-0.078,0.762h-1.02C-136.563,158.469-136.519,158.069-136.407,157.702z"/>
	<path fill="#0072BC" d="M-129.867,159.249c0.016-0.336,0.056-0.664,0.12-0.983s0.156-0.624,0.276-0.912
		c0.12-0.288,0.284-0.54,0.492-0.756s0.47-0.388,0.786-0.517c0.316-0.127,0.694-0.191,1.134-0.191s0.818,0.064,1.134,0.191
		c0.316,0.129,0.578,0.301,0.786,0.517s0.372,0.468,0.492,0.756s0.212,0.593,0.276,0.912s0.104,0.647,0.12,0.983
		s0.024,0.66,0.024,0.973s-0.008,0.636-0.024,0.972s-0.056,0.664-0.12,0.983c-0.064,0.32-0.156,0.623-0.276,0.906
		c-0.12,0.285-0.284,0.535-0.492,0.75c-0.208,0.217-0.468,0.387-0.78,0.51c-0.312,0.125-0.692,0.187-1.14,0.187
		c-0.44,0-0.818-0.062-1.134-0.187c-0.316-0.123-0.578-0.293-0.786-0.51c-0.208-0.215-0.372-0.465-0.492-0.75
		c-0.12-0.283-0.212-0.586-0.276-0.906c-0.064-0.319-0.104-0.647-0.12-0.983s-0.024-0.659-0.024-0.972
		S-129.883,159.584-129.867,159.249z M-128.781,161.284c0.02,0.396,0.084,0.768,0.192,1.115s0.282,0.643,0.522,0.882
		c0.24,0.24,0.576,0.36,1.008,0.36s0.768-0.12,1.008-0.36c0.24-0.239,0.414-0.534,0.522-0.882c0.108-0.348,0.172-0.72,0.192-1.115
		c0.02-0.396,0.03-0.755,0.03-1.074c0-0.209-0.002-0.438-0.006-0.69c-0.004-0.252-0.024-0.504-0.06-0.756
		c-0.036-0.253-0.088-0.498-0.156-0.738c-0.068-0.239-0.168-0.45-0.3-0.63c-0.132-0.18-0.298-0.326-0.498-0.438
		c-0.2-0.112-0.444-0.168-0.732-0.168s-0.532,0.056-0.732,0.168c-0.2,0.111-0.366,0.258-0.498,0.438s-0.232,0.391-0.3,0.63
		c-0.068,0.24-0.12,0.485-0.156,0.738c-0.036,0.252-0.056,0.504-0.06,0.756s-0.006,0.481-0.006,0.69
		C-128.811,160.529-128.801,160.887-128.781,161.284z"/>
	<path fill="#0072BC" d="M-121.898,158.193v0.841h0.024c0.168-0.345,0.432-0.595,0.792-0.75c0.36-0.156,0.756-0.234,1.188-0.234
		c0.48,0,0.898,0.088,1.254,0.264s0.652,0.414,0.888,0.714c0.236,0.3,0.414,0.646,0.534,1.038c0.12,0.393,0.18,0.809,0.18,1.248
		s-0.058,0.855-0.174,1.248c-0.116,0.393-0.292,0.734-0.528,1.025c-0.236,0.293-0.532,0.522-0.888,0.69
		c-0.356,0.168-0.771,0.252-1.242,0.252c-0.152,0-0.322-0.017-0.51-0.048c-0.188-0.032-0.374-0.084-0.558-0.156
		c-0.184-0.072-0.358-0.17-0.522-0.294c-0.164-0.124-0.302-0.278-0.414-0.462h-0.024v3.191h-1.02v-8.567H-121.898z
		 M-118.232,160.395c-0.076-0.275-0.192-0.521-0.348-0.738c-0.156-0.216-0.356-0.388-0.6-0.516s-0.53-0.192-0.858-0.192
		c-0.344,0-0.636,0.068-0.876,0.204c-0.24,0.137-0.436,0.314-0.588,0.534c-0.152,0.22-0.262,0.47-0.33,0.75
		c-0.068,0.28-0.102,0.563-0.102,0.853c0,0.304,0.036,0.598,0.108,0.881c0.072,0.285,0.186,0.535,0.342,0.75
		c0.156,0.217,0.358,0.391,0.606,0.522c0.248,0.132,0.548,0.198,0.9,0.198c0.352,0,0.646-0.068,0.882-0.204s0.426-0.315,0.57-0.54
		c0.144-0.224,0.248-0.48,0.312-0.768c0.064-0.289,0.096-0.584,0.096-0.889C-118.119,160.954-118.157,160.67-118.232,160.395z"/>
	<path fill="#0072BC" d="M-116.331,158.193h1.308l1.488,2.172l1.548-2.172h1.224l-2.136,2.856l2.4,3.348h-1.308l-1.728-2.568
		l-1.728,2.568h-1.236l2.328-3.264L-116.331,158.193z"/>
</g>
<path fill-rule="evenodd" clip-rule="evenodd" fill="#FFFFFF" d="M-141.956,321.533c-8.995,0-16.289,7.294-16.289,16.291
	c0,7.196,4.667,13.302,11.141,15.456c0.814,0.149,1.112-0.354,1.112-0.785c0-0.387-0.014-1.411-0.022-2.771
	c-4.531,0.984-5.487-2.184-5.487-2.184c-0.741-1.882-1.809-2.383-1.809-2.383c-1.479-1.011,0.112-0.99,0.112-0.99
	c1.635,0.115,2.495,1.679,2.495,1.679c1.453,2.489,3.812,1.771,4.741,1.354c0.148-1.053,0.569-1.771,1.034-2.178
	c-3.617-0.411-7.42-1.809-7.42-8.051c0-1.778,0.635-3.232,1.677-4.371c-0.167-0.412-0.727-2.068,0.16-4.311
	c0,0,1.368-0.438,4.479,1.67c1.299-0.361,2.693-0.543,4.078-0.549c1.383,0.006,2.777,0.188,4.078,0.549
	c3.11-2.108,4.475-1.67,4.475-1.67c0.889,2.242,0.33,3.898,0.162,4.311c1.044,1.139,1.674,2.593,1.674,4.371
	c0,6.258-3.809,7.635-7.438,8.038c0.585,0.503,1.106,1.497,1.106,3.017c0,2.178-0.02,3.935-0.02,4.469
	c0,0.436,0.293,0.942,1.12,0.783c6.467-2.158,11.13-8.26,11.13-15.454C-125.665,328.827-132.959,321.533-141.956,321.533z"/>
<g>
	<path fill-rule="evenodd" clip-rule="evenodd" fill="#FFFFFF" d="M56.045,272.524c-33.347,0-60.388,27.035-60.388,60.388
		c0,26.681,17.303,49.316,41.297,57.302c3.018,0.559,4.126-1.311,4.126-2.905c0-1.439-0.056-6.197-0.082-11.243
		c-16.8,3.653-20.345-7.125-20.345-7.125c-2.747-6.979-6.705-8.836-6.705-8.836c-5.479-3.748,0.413-3.671,0.413-3.671
		c6.063,0.426,9.257,6.224,9.257,6.224c5.386,9.231,14.127,6.562,17.573,5.02c0.542-3.902,2.106-6.567,3.834-8.075
		c-13.413-1.526-27.514-6.705-27.514-29.844c0-6.593,2.359-11.979,6.223-16.209c-0.627-1.521-2.694-7.663,0.585-15.981
		c0,0,5.071-1.622,16.61,6.19c4.817-1.338,9.983-2.009,15.115-2.032c5.132,0.023,10.302,0.694,15.128,2.032
		c11.526-7.812,16.59-6.19,16.59-6.19c3.287,8.318,1.22,14.46,0.593,15.981c3.872,4.229,6.215,9.616,6.215,16.209
		c0,23.194-14.127,28.301-27.574,29.796c2.166,1.874,4.096,5.549,4.096,11.183c0,8.08-0.069,14.583-0.069,16.572
		c0,1.607,1.087,3.49,4.147,2.897c23.981-7.994,41.263-30.622,41.263-57.294C116.433,299.559,89.396,272.524,56.045,272.524z"/>
	<path fill="#FFFFFF" d="M18.529,359.227c-0.133,0.301-0.605,0.391-1.035,0.185c-0.438-0.197-0.684-0.606-0.542-0.907
		c0.13-0.309,0.603-0.395,1.04-0.188C18.431,358.513,18.681,358.926,18.529,359.227L18.529,359.227z M17.786,358.676"/>
	<path fill="#FFFFFF" d="M20.976,361.956c-0.288,0.267-0.852,0.143-1.233-0.279c-0.396-0.421-0.469-0.984-0.177-1.255
		c0.297-0.267,0.843-0.142,1.238,0.279C21.199,361.126,21.276,361.685,20.976,361.956L20.976,361.956z M20.399,361.337"/>
	<path fill="#FFFFFF" d="M23.356,365.433c-0.37,0.258-0.976,0.017-1.35-0.521c-0.37-0.537-0.37-1.182,0.009-1.439
		c0.374-0.258,0.971-0.025,1.35,0.507C23.734,364.526,23.734,365.17,23.356,365.433L23.356,365.433z M23.356,365.433"/>
	<path fill="#FFFFFF" d="M26.618,368.793c-0.331,0.365-1.036,0.267-1.552-0.231c-0.528-0.486-0.675-1.178-0.344-1.543
		c0.336-0.365,1.045-0.263,1.564,0.231C26.812,367.737,26.971,368.432,26.618,368.793L26.618,368.793z M26.618,368.793"/>
	<path fill="#FFFFFF" d="M31.118,370.745c-0.146,0.473-0.825,0.688-1.509,0.486c-0.684-0.207-1.13-0.761-0.992-1.238
		c0.142-0.477,0.824-0.7,1.513-0.485C30.812,369.713,31.26,370.263,31.118,370.745L31.118,370.745z M31.118,370.745"/>
	<path fill="#FFFFFF" d="M36.061,371.106c0.017,0.498-0.563,0.911-1.281,0.92c-0.722,0.017-1.307-0.387-1.314-0.877
		c0-0.503,0.567-0.911,1.289-0.924C35.472,370.211,36.061,370.612,36.061,371.106L36.061,371.106z M36.061,371.106"/>
	<path fill="#FFFFFF" d="M40.659,370.324c0.086,0.485-0.413,0.984-1.126,1.117c-0.701,0.129-1.35-0.172-1.439-0.653
		c-0.087-0.498,0.421-0.997,1.121-1.126C39.929,369.538,40.568,369.83,40.659,370.324L40.659,370.324z M40.659,370.324"/>
</g>
<g>
	<g>
		
			<line fill="none" stroke="#1981BC" stroke-linecap="round" stroke-miterlimit="10" x1="-69.666" y1="266.59" x2="-69.666" y2="267.09"/>
		
			<line fill="none" stroke="#1981BC" stroke-linecap="round" stroke-miterlimit="10" stroke-dasharray="0.9999,1.9999" x1="-69.666" y1="269.09" x2="-69.666" y2="403.083"/>
		
			<line fill="none" stroke="#1981BC" stroke-linecap="round" stroke-miterlimit="10" x1="-69.666" y1="404.083" x2="-69.666" y2="404.583"/>
	</g>
</g>
<g>
	<path fill="#0072BC" d="M-161.288,418.599c-0.38-0.276-0.866-0.414-1.458-0.414c-0.24,0-0.476,0.024-0.708,0.071
		c-0.232,0.049-0.438,0.129-0.618,0.24c-0.18,0.113-0.324,0.263-0.432,0.451c-0.108,0.188-0.162,0.422-0.162,0.701
		c0,0.264,0.078,0.479,0.234,0.643c0.156,0.164,0.364,0.298,0.624,0.401c0.26,0.104,0.554,0.19,0.882,0.259
		c0.328,0.067,0.662,0.142,1.002,0.221c0.34,0.08,0.674,0.175,1.002,0.283c0.328,0.107,0.622,0.254,0.882,0.438
		c0.26,0.184,0.468,0.416,0.624,0.695c0.156,0.281,0.234,0.633,0.234,1.057c0,0.456-0.102,0.846-0.306,1.17
		s-0.466,0.588-0.786,0.792c-0.32,0.204-0.678,0.353-1.074,0.444s-0.79,0.138-1.182,0.138c-0.48,0-0.934-0.06-1.362-0.18
		c-0.428-0.12-0.804-0.302-1.128-0.546c-0.324-0.244-0.58-0.557-0.768-0.937s-0.282-0.829-0.282-1.35h1.08
		c0,0.36,0.07,0.67,0.21,0.93c0.14,0.261,0.324,0.474,0.552,0.642s0.494,0.293,0.798,0.373c0.304,0.08,0.616,0.119,0.936,0.119
		c0.256,0,0.514-0.023,0.774-0.072c0.26-0.047,0.494-0.129,0.702-0.246c0.208-0.115,0.376-0.273,0.504-0.473
		c0.128-0.201,0.192-0.457,0.192-0.769c0-0.296-0.078-0.536-0.234-0.72c-0.156-0.184-0.364-0.334-0.624-0.45
		c-0.26-0.116-0.554-0.21-0.882-0.282c-0.328-0.072-0.662-0.146-1.002-0.223c-0.34-0.075-0.674-0.163-1.002-0.264
		c-0.328-0.1-0.623-0.231-0.882-0.396s-0.468-0.376-0.624-0.636c-0.156-0.26-0.234-0.586-0.234-0.979
		c0-0.432,0.088-0.806,0.264-1.122c0.176-0.315,0.41-0.575,0.702-0.78c0.292-0.203,0.624-0.355,0.996-0.455
		c0.372-0.101,0.754-0.15,1.146-0.15c0.44,0,0.848,0.053,1.224,0.156s0.706,0.268,0.99,0.492c0.284,0.224,0.508,0.506,0.672,0.846
		c0.164,0.34,0.254,0.746,0.27,1.218h-1.08C-160.687,419.321-160.908,418.875-161.288,418.599z"/>
	<path fill="#0072BC" d="M-157.01,419.793v0.912h0.024c0.464-0.705,1.132-1.057,2.004-1.057c0.384,0,0.732,0.08,1.044,0.24
		s0.532,0.432,0.66,0.816c0.208-0.336,0.482-0.596,0.822-0.78c0.34-0.185,0.714-0.276,1.122-0.276c0.312,0,0.594,0.034,0.846,0.102
		c0.252,0.068,0.468,0.175,0.648,0.318c0.18,0.145,0.32,0.33,0.42,0.559c0.1,0.228,0.15,0.502,0.15,0.822v4.547h-1.02v-4.067
		c0-0.192-0.017-0.372-0.048-0.54s-0.092-0.314-0.18-0.438c-0.088-0.125-0.21-0.223-0.366-0.295s-0.358-0.107-0.606-0.107
		c-0.504,0-0.9,0.144-1.188,0.432s-0.432,0.672-0.432,1.152v3.863h-1.02v-4.067c0-0.2-0.018-0.384-0.054-0.552
		c-0.036-0.168-0.098-0.314-0.186-0.438c-0.088-0.124-0.206-0.22-0.354-0.288c-0.148-0.068-0.338-0.102-0.57-0.102
		c-0.296,0-0.55,0.06-0.762,0.18c-0.212,0.12-0.384,0.264-0.516,0.432s-0.228,0.342-0.288,0.522s-0.09,0.33-0.09,0.45v3.863h-1.02
		v-6.203H-157.01z"/>
	<path fill="#0072BC" d="M-142.97,426.129c-0.264,0-0.474-0.074-0.63-0.223c-0.156-0.147-0.234-0.39-0.234-0.726
		c-0.28,0.336-0.606,0.578-0.978,0.726c-0.372,0.148-0.774,0.223-1.206,0.223c-0.28,0-0.544-0.03-0.792-0.09
		c-0.248-0.061-0.466-0.16-0.654-0.301c-0.188-0.14-0.336-0.319-0.444-0.539c-0.108-0.221-0.162-0.486-0.162-0.799
		c0-0.352,0.06-0.64,0.18-0.863c0.12-0.225,0.278-0.406,0.474-0.547c0.196-0.14,0.42-0.246,0.672-0.318
		c0.252-0.071,0.51-0.131,0.774-0.18c0.28-0.056,0.546-0.098,0.798-0.125c0.252-0.028,0.474-0.068,0.666-0.121
		c0.192-0.051,0.344-0.127,0.456-0.228c0.112-0.101,0.168-0.246,0.168-0.438c0-0.223-0.042-0.403-0.126-0.539
		c-0.084-0.137-0.192-0.24-0.324-0.312s-0.28-0.12-0.444-0.145c-0.164-0.023-0.326-0.035-0.486-0.035
		c-0.432,0-0.792,0.082-1.08,0.246s-0.444,0.474-0.468,0.93h-1.02c0.016-0.384,0.096-0.708,0.24-0.973
		c0.144-0.264,0.336-0.478,0.576-0.642c0.24-0.163,0.516-0.282,0.828-0.354c0.312-0.071,0.64-0.107,0.984-0.107
		c0.28,0,0.558,0.02,0.834,0.061c0.276,0.039,0.526,0.121,0.75,0.246c0.224,0.123,0.404,0.298,0.54,0.521
		c0.136,0.225,0.204,0.516,0.204,0.876v3.192c0,0.24,0.014,0.416,0.042,0.527c0.028,0.112,0.122,0.168,0.282,0.168
		c0.088,0,0.192-0.02,0.312-0.06v0.792C-142.415,426.077-142.658,426.129-142.97,426.129z M-144.398,423.002
		c-0.208,0.045-0.426,0.08-0.654,0.108s-0.458,0.06-0.69,0.097c-0.232,0.035-0.44,0.094-0.624,0.174
		c-0.185,0.08-0.334,0.193-0.45,0.342c-0.116,0.148-0.174,0.35-0.174,0.605c0,0.168,0.034,0.311,0.102,0.426
		c0.068,0.117,0.156,0.211,0.264,0.283c0.108,0.071,0.236,0.123,0.384,0.155c0.148,0.032,0.298,0.048,0.45,0.048
		c0.336,0,0.624-0.045,0.864-0.138c0.24-0.092,0.436-0.208,0.588-0.349c0.152-0.139,0.264-0.291,0.336-0.455
		s0.108-0.318,0.108-0.463v-1.043C-144.022,422.889-144.19,422.959-144.398,423.002z"/>
	<path fill="#0072BC" d="M-140.21,417.429v8.567h-1.02v-8.567H-140.21z"/>
	<path fill="#0072BC" d="M-137.546,417.429v8.567h-1.02v-8.567H-137.546z"/>
	<path fill="#0072BC" d="M-192.71,435.092v-0.899h1.044v-0.924c0-0.504,0.146-0.886,0.438-1.146s0.718-0.391,1.278-0.391
		c0.096,0,0.206,0.008,0.33,0.023c0.124,0.017,0.234,0.041,0.33,0.072v0.889c-0.088-0.032-0.184-0.055-0.288-0.066
		s-0.2-0.018-0.288-0.018c-0.248,0-0.44,0.048-0.576,0.144c-0.136,0.097-0.204,0.28-0.204,0.552v0.864h1.2v0.899h-1.2v5.305h-1.02
		v-5.305H-192.71z"/>
	<path fill="#0072BC" d="M-188.678,436.023c0.128-0.396,0.32-0.739,0.576-1.032c0.256-0.291,0.572-0.521,0.948-0.689
		s0.808-0.252,1.296-0.252c0.496,0,0.93,0.084,1.302,0.252s0.686,0.398,0.942,0.689c0.256,0.293,0.448,0.637,0.576,1.032
		c0.128,0.396,0.192,0.822,0.192,1.278c0,0.455-0.064,0.88-0.192,1.271c-0.128,0.393-0.32,0.734-0.576,1.026
		c-0.256,0.292-0.57,0.521-0.942,0.685c-0.372,0.163-0.806,0.245-1.302,0.245c-0.488,0-0.92-0.082-1.296-0.245
		c-0.376-0.164-0.692-0.393-0.948-0.685c-0.256-0.292-0.448-0.634-0.576-1.026c-0.128-0.392-0.192-0.816-0.192-1.271
		C-188.87,436.845-188.806,436.418-188.678,436.023z M-187.64,438.303c0.1,0.292,0.238,0.535,0.414,0.732
		c0.176,0.195,0.382,0.346,0.618,0.449s0.486,0.156,0.75,0.156c0.264,0,0.514-0.053,0.75-0.156s0.442-0.254,0.618-0.449
		c0.176-0.197,0.314-0.44,0.414-0.732s0.15-0.626,0.15-1.002c0-0.377-0.05-0.71-0.15-1.002c-0.1-0.293-0.238-0.538-0.414-0.738
		c-0.176-0.199-0.382-0.352-0.618-0.456s-0.486-0.156-0.75-0.156c-0.264,0-0.514,0.052-0.75,0.156s-0.442,0.257-0.618,0.456
		c-0.176,0.2-0.314,0.445-0.414,0.738c-0.1,0.292-0.15,0.625-0.15,1.002C-187.79,437.677-187.74,438.011-187.64,438.303z"/>
	<path fill="#0072BC" d="M-180.722,434.193v1.308h0.024c0.248-0.504,0.552-0.875,0.912-1.115s0.816-0.352,1.368-0.336v1.08
		c-0.408,0-0.756,0.056-1.044,0.168c-0.288,0.111-0.521,0.275-0.696,0.492c-0.176,0.215-0.304,0.478-0.384,0.785
		c-0.08,0.309-0.12,0.662-0.12,1.062v2.76h-1.02v-6.204H-180.722z"/>
	<path fill="#0072BC" d="M-171.831,440.397v-6.096h-2.208v-0.816c0.288,0,0.568-0.021,0.84-0.066
		c0.272-0.043,0.518-0.125,0.738-0.246c0.22-0.119,0.406-0.283,0.558-0.491c0.152-0.208,0.256-0.472,0.312-0.792h0.78v8.508
		H-171.831z"/>
	<path fill="#0072BC" d="M-163.886,433.137c-0.248-0.232-0.576-0.348-0.984-0.348c-0.432,0-0.78,0.105-1.044,0.317
		c-0.264,0.212-0.47,0.479-0.618,0.804s-0.25,0.674-0.306,1.051c-0.056,0.375-0.088,0.728-0.096,1.056l0.024,0.024
		c0.24-0.393,0.538-0.676,0.894-0.853c0.356-0.176,0.766-0.265,1.23-0.265c0.408,0,0.774,0.07,1.098,0.211
		c0.324,0.14,0.596,0.334,0.816,0.582c0.22,0.248,0.39,0.539,0.51,0.875c0.12,0.337,0.18,0.701,0.18,1.093
		c0,0.312-0.048,0.636-0.144,0.972s-0.254,0.643-0.474,0.918c-0.22,0.276-0.512,0.504-0.876,0.684
		c-0.364,0.181-0.814,0.271-1.35,0.271c-0.632,0-1.14-0.128-1.524-0.384c-0.384-0.256-0.68-0.584-0.888-0.984
		c-0.208-0.399-0.346-0.84-0.414-1.32c-0.068-0.479-0.102-0.943-0.102-1.392c0-0.583,0.05-1.149,0.15-1.698
		c0.1-0.547,0.27-1.033,0.51-1.457c0.24-0.424,0.56-0.764,0.96-1.021c0.4-0.256,0.904-0.384,1.512-0.384
		c0.704,0,1.264,0.186,1.68,0.558s0.656,0.91,0.72,1.614h-1.02C-163.49,433.676-163.638,433.37-163.886,433.137z M-165.734,435.975
		c-0.216,0.1-0.4,0.236-0.552,0.408s-0.266,0.376-0.342,0.611c-0.076,0.236-0.114,0.486-0.114,0.75s0.04,0.512,0.12,0.744
		c0.08,0.232,0.194,0.432,0.342,0.6s0.332,0.303,0.552,0.402c0.22,0.101,0.47,0.15,0.75,0.15c0.28,0,0.526-0.05,0.738-0.15
		c0.212-0.1,0.39-0.238,0.534-0.414s0.254-0.378,0.33-0.605c0.076-0.229,0.114-0.467,0.114-0.715c0-0.264-0.034-0.514-0.102-0.75
		c-0.068-0.235-0.174-0.439-0.318-0.611s-0.324-0.311-0.54-0.414s-0.468-0.156-0.756-0.156S-165.518,435.875-165.734,435.975z"/>
	<path fill="#0072BC" d="M-159.914,434.193v0.841h0.024c0.168-0.345,0.432-0.595,0.792-0.75c0.36-0.156,0.756-0.234,1.188-0.234
		c0.48,0,0.898,0.088,1.254,0.264s0.652,0.414,0.888,0.714c0.236,0.3,0.414,0.646,0.534,1.038c0.12,0.393,0.18,0.809,0.18,1.248
		s-0.058,0.855-0.174,1.248c-0.116,0.393-0.292,0.734-0.528,1.025c-0.236,0.293-0.532,0.522-0.888,0.69
		c-0.356,0.168-0.771,0.252-1.242,0.252c-0.152,0-0.322-0.017-0.51-0.048c-0.188-0.032-0.374-0.084-0.558-0.156
		c-0.184-0.072-0.358-0.17-0.522-0.294c-0.164-0.124-0.302-0.278-0.414-0.462h-0.024v3.191h-1.02v-8.567H-159.914z
		 M-156.248,436.395c-0.076-0.275-0.192-0.521-0.348-0.738c-0.156-0.216-0.356-0.388-0.6-0.516s-0.53-0.192-0.858-0.192
		c-0.344,0-0.636,0.068-0.876,0.204c-0.24,0.137-0.436,0.314-0.588,0.534c-0.152,0.22-0.262,0.47-0.33,0.75
		c-0.068,0.28-0.102,0.563-0.102,0.853c0,0.304,0.036,0.598,0.108,0.881c0.072,0.285,0.186,0.535,0.342,0.75
		c0.156,0.217,0.358,0.391,0.606,0.522c0.248,0.132,0.548,0.198,0.9,0.198c0.352,0,0.646-0.068,0.882-0.204s0.426-0.315,0.57-0.54
		c0.144-0.224,0.248-0.48,0.312-0.768c0.064-0.289,0.096-0.584,0.096-0.889C-156.134,436.954-156.172,436.67-156.248,436.395z"/>
	<path fill="#0072BC" d="M-154.347,434.193h1.308l1.488,2.172l1.548-2.172h1.224l-2.136,2.856l2.4,3.348h-1.308l-1.728-2.568
		l-1.728,2.568h-1.236l2.328-3.264L-154.347,434.193z"/>
	<path fill="#0072BC" d="M-144.339,436.581v0.961h-3.468v-0.961H-144.339z"/>
	<path fill="#0072BC" d="M-140.487,440.397v-6.096h-2.208v-0.816c0.288,0,0.568-0.021,0.84-0.066
		c0.272-0.043,0.518-0.125,0.738-0.246c0.22-0.119,0.406-0.283,0.558-0.491c0.152-0.208,0.256-0.472,0.312-0.792h0.78v8.508
		H-140.487z"/>
	<path fill="#0072BC" d="M-136.407,433.702c0.112-0.369,0.286-0.687,0.522-0.955c0.236-0.268,0.53-0.478,0.882-0.629
		c0.352-0.152,0.752-0.229,1.2-0.229c0.368,0,0.714,0.054,1.038,0.162c0.324,0.107,0.606,0.264,0.846,0.468
		c0.24,0.204,0.43,0.458,0.57,0.762c0.14,0.304,0.21,0.656,0.21,1.056c0,0.377-0.058,0.709-0.174,0.996
		c-0.116,0.289-0.27,0.547-0.462,0.774s-0.412,0.435-0.66,0.618s-0.504,0.359-0.768,0.527c-0.264,0.16-0.528,0.318-0.792,0.475
		c-0.264,0.156-0.506,0.322-0.726,0.498c-0.22,0.176-0.408,0.365-0.564,0.57c-0.156,0.203-0.258,0.438-0.306,0.701h4.368v0.9h-5.556
		c0.04-0.504,0.13-0.934,0.27-1.29c0.14-0.356,0.318-0.666,0.534-0.931c0.216-0.264,0.46-0.495,0.732-0.695
		c0.271-0.199,0.556-0.388,0.852-0.564c0.36-0.224,0.676-0.43,0.948-0.617s0.498-0.379,0.678-0.57c0.18-0.191,0.316-0.4,0.408-0.624
		s0.138-0.483,0.138-0.78c0-0.231-0.044-0.441-0.132-0.63c-0.088-0.188-0.206-0.35-0.354-0.485c-0.148-0.137-0.322-0.24-0.522-0.312
		c-0.2-0.072-0.412-0.107-0.636-0.107c-0.296,0-0.55,0.062-0.762,0.186s-0.386,0.286-0.522,0.486
		c-0.136,0.199-0.234,0.426-0.294,0.678s-0.086,0.506-0.078,0.762h-1.02C-136.563,434.469-136.519,434.069-136.407,433.702z"/>
	<path fill="#0072BC" d="M-129.867,435.249c0.016-0.336,0.056-0.664,0.12-0.983s0.156-0.624,0.276-0.912
		c0.12-0.288,0.284-0.54,0.492-0.756s0.47-0.388,0.786-0.517c0.316-0.127,0.694-0.191,1.134-0.191s0.818,0.064,1.134,0.191
		c0.316,0.129,0.578,0.301,0.786,0.517s0.372,0.468,0.492,0.756s0.212,0.593,0.276,0.912s0.104,0.647,0.12,0.983
		s0.024,0.66,0.024,0.973s-0.008,0.636-0.024,0.972s-0.056,0.664-0.12,0.983c-0.064,0.32-0.156,0.623-0.276,0.906
		c-0.12,0.285-0.284,0.535-0.492,0.75c-0.208,0.217-0.468,0.387-0.78,0.51c-0.312,0.125-0.692,0.187-1.14,0.187
		c-0.44,0-0.818-0.062-1.134-0.187c-0.316-0.123-0.578-0.293-0.786-0.51c-0.208-0.215-0.372-0.465-0.492-0.75
		c-0.12-0.283-0.212-0.586-0.276-0.906c-0.064-0.319-0.104-0.647-0.12-0.983s-0.024-0.659-0.024-0.972
		S-129.883,435.584-129.867,435.249z M-128.781,437.284c0.02,0.396,0.084,0.768,0.192,1.115s0.282,0.643,0.522,0.882
		c0.24,0.24,0.576,0.36,1.008,0.36s0.768-0.12,1.008-0.36c0.24-0.239,0.414-0.534,0.522-0.882c0.108-0.348,0.172-0.72,0.192-1.115
		c0.02-0.396,0.03-0.755,0.03-1.074c0-0.209-0.002-0.438-0.006-0.69c-0.004-0.252-0.024-0.504-0.06-0.756
		c-0.036-0.253-0.088-0.498-0.156-0.738c-0.068-0.239-0.168-0.45-0.3-0.63c-0.132-0.18-0.298-0.326-0.498-0.438
		c-0.2-0.112-0.444-0.168-0.732-0.168s-0.532,0.056-0.732,0.168c-0.2,0.111-0.366,0.258-0.498,0.438s-0.232,0.391-0.3,0.63
		c-0.068,0.24-0.12,0.485-0.156,0.738c-0.036,0.252-0.056,0.504-0.06,0.756s-0.006,0.481-0.006,0.69
		C-128.811,436.529-128.801,436.887-128.781,437.284z"/>
	<path fill="#0072BC" d="M-121.898,434.193v0.841h0.024c0.168-0.345,0.432-0.595,0.792-0.75c0.36-0.156,0.756-0.234,1.188-0.234
		c0.48,0,0.898,0.088,1.254,0.264s0.652,0.414,0.888,0.714c0.236,0.3,0.414,0.646,0.534,1.038c0.12,0.393,0.18,0.809,0.18,1.248
		s-0.058,0.855-0.174,1.248c-0.116,0.393-0.292,0.734-0.528,1.025c-0.236,0.293-0.532,0.522-0.888,0.69
		c-0.356,0.168-0.771,0.252-1.242,0.252c-0.152,0-0.322-0.017-0.51-0.048c-0.188-0.032-0.374-0.084-0.558-0.156
		c-0.184-0.072-0.358-0.17-0.522-0.294c-0.164-0.124-0.302-0.278-0.414-0.462h-0.024v3.191h-1.02v-8.567H-121.898z
		 M-118.232,436.395c-0.076-0.275-0.192-0.521-0.348-0.738c-0.156-0.216-0.356-0.388-0.6-0.516s-0.53-0.192-0.858-0.192
		c-0.344,0-0.636,0.068-0.876,0.204c-0.24,0.137-0.436,0.314-0.588,0.534c-0.152,0.22-0.262,0.47-0.33,0.75
		c-0.068,0.28-0.102,0.563-0.102,0.853c0,0.304,0.036,0.598,0.108,0.881c0.072,0.285,0.186,0.535,0.342,0.75
		c0.156,0.217,0.358,0.391,0.606,0.522c0.248,0.132,0.548,0.198,0.9,0.198c0.352,0,0.646-0.068,0.882-0.204s0.426-0.315,0.57-0.54
		c0.144-0.224,0.248-0.48,0.312-0.768c0.064-0.289,0.096-0.584,0.096-0.889C-118.119,436.954-118.157,436.67-118.232,436.395z"/>
	<path fill="#0072BC" d="M-116.331,434.193h1.308l1.488,2.172l1.548-2.172h1.224l-2.136,2.856l2.4,3.348h-1.308l-1.728-2.568
		l-1.728,2.568h-1.236l2.328-3.264L-116.331,434.193z"/>
</g>
<g>
	<path fill="#0072BC" d="M41.069,417.428v7.607h4.536v0.961H39.93v-8.568H41.069z"/>
	<path fill="#0072BC" d="M51.197,426.127c-0.264,0-0.475-0.073-0.631-0.221c-0.155-0.148-0.233-0.391-0.233-0.727
		c-0.28,0.336-0.606,0.578-0.978,0.727c-0.373,0.147-0.774,0.221-1.207,0.221c-0.279,0-0.543-0.029-0.791-0.09
		c-0.248-0.06-0.467-0.16-0.654-0.299c-0.188-0.141-0.336-0.32-0.443-0.541c-0.109-0.22-0.162-0.486-0.162-0.798
		c0-0.352,0.06-0.64,0.18-0.864c0.119-0.224,0.277-0.405,0.474-0.545c0.196-0.141,0.42-0.246,0.672-0.318s0.511-0.133,0.774-0.18
		c0.279-0.057,0.546-0.099,0.798-0.127c0.252-0.027,0.474-0.067,0.666-0.119c0.192-0.053,0.344-0.129,0.456-0.229
		c0.111-0.1,0.168-0.246,0.168-0.438c0-0.225-0.042-0.404-0.126-0.541c-0.084-0.135-0.192-0.239-0.324-0.312
		c-0.132-0.071-0.28-0.12-0.444-0.144c-0.164-0.024-0.326-0.037-0.485-0.037c-0.433,0-0.792,0.083-1.08,0.246
		c-0.288,0.164-0.444,0.475-0.468,0.931h-1.021c0.017-0.384,0.097-0.708,0.24-0.972s0.336-0.479,0.575-0.643
		c0.24-0.164,0.517-0.281,0.828-0.354c0.312-0.072,0.641-0.108,0.984-0.108c0.28,0,0.559,0.021,0.834,0.06
		c0.276,0.041,0.526,0.123,0.75,0.246c0.225,0.125,0.404,0.299,0.54,0.522s0.204,0.517,0.204,0.876v3.191
		c0,0.24,0.014,0.416,0.042,0.529c0.028,0.111,0.122,0.168,0.282,0.168c0.088,0,0.191-0.021,0.312-0.061v0.792
		C51.753,426.077,51.51,426.127,51.197,426.127z M49.77,423.002c-0.209,0.044-0.426,0.08-0.654,0.107
		c-0.229,0.028-0.459,0.061-0.69,0.096c-0.231,0.037-0.44,0.095-0.624,0.174c-0.184,0.08-0.334,0.195-0.449,0.343
		c-0.117,0.147-0.174,0.351-0.174,0.606c0,0.168,0.033,0.31,0.102,0.426c0.067,0.115,0.156,0.209,0.264,0.281
		s0.236,0.125,0.385,0.156c0.147,0.032,0.297,0.049,0.449,0.049c0.336,0,0.624-0.047,0.864-0.139
		c0.239-0.092,0.436-0.208,0.588-0.348c0.151-0.141,0.265-0.293,0.336-0.457c0.071-0.163,0.108-0.317,0.108-0.461v-1.045
		C50.145,422.888,49.977,422.958,49.77,423.002z"/>
	<path fill="#0072BC" d="M53.801,419.792v1.309h0.023c0.248-0.504,0.553-0.876,0.912-1.116c0.36-0.239,0.816-0.352,1.369-0.336v1.08
		c-0.408,0-0.756,0.056-1.045,0.168c-0.287,0.112-0.52,0.276-0.695,0.492s-0.305,0.478-0.385,0.786
		c-0.08,0.308-0.119,0.662-0.119,1.062v2.76h-1.021v-6.205H53.801z"/>
	<path fill="#0072BC" d="M61.193,427.749c-0.465,0.504-1.192,0.756-2.184,0.756c-0.289,0-0.582-0.032-0.883-0.096
		c-0.3-0.064-0.572-0.168-0.816-0.312s-0.445-0.332-0.605-0.564s-0.248-0.516-0.264-0.852h1.02c0.008,0.184,0.066,0.34,0.174,0.468
		c0.108,0.128,0.24,0.231,0.396,0.312s0.326,0.139,0.51,0.175s0.359,0.054,0.527,0.054c0.337,0,0.621-0.059,0.853-0.174
		c0.231-0.116,0.425-0.275,0.576-0.48c0.151-0.203,0.262-0.449,0.33-0.738c0.067-0.287,0.103-0.604,0.103-0.947v-0.408h-0.024
		c-0.177,0.385-0.442,0.666-0.798,0.846c-0.356,0.181-0.734,0.271-1.135,0.271c-0.464,0-0.867-0.084-1.211-0.252
		c-0.345-0.168-0.633-0.394-0.865-0.679c-0.231-0.283-0.406-0.615-0.521-0.996c-0.116-0.379-0.174-0.781-0.174-1.205
		c0-0.368,0.048-0.746,0.145-1.135c0.096-0.387,0.256-0.739,0.479-1.056c0.224-0.315,0.521-0.575,0.888-0.78
		c0.368-0.203,0.82-0.306,1.355-0.306c0.393,0,0.752,0.087,1.08,0.259s0.584,0.43,0.769,0.773h0.013v-0.889h0.959v5.677
		C61.889,426.484,61.656,427.245,61.193,427.749z M59.891,424.958c0.236-0.139,0.426-0.323,0.57-0.551
		c0.145-0.229,0.25-0.486,0.318-0.774c0.067-0.288,0.102-0.576,0.102-0.864c0-0.271-0.031-0.54-0.096-0.805
		c-0.064-0.264-0.166-0.502-0.307-0.713c-0.14-0.213-0.322-0.383-0.545-0.51c-0.225-0.129-0.496-0.193-0.816-0.193
		c-0.328,0-0.608,0.062-0.84,0.187c-0.232,0.124-0.422,0.29-0.57,0.498s-0.256,0.448-0.324,0.72
		c-0.068,0.272-0.102,0.557-0.102,0.853c0,0.28,0.027,0.56,0.084,0.84c0.056,0.28,0.152,0.534,0.287,0.763
		c0.137,0.228,0.316,0.412,0.541,0.551c0.224,0.141,0.504,0.211,0.84,0.211S59.654,425.098,59.891,424.958z"/>
	<path fill="#0072BC" d="M67.816,425.6c-0.464,0.352-1.048,0.527-1.752,0.527c-0.496,0-0.926-0.08-1.289-0.239
		c-0.365-0.16-0.671-0.384-0.918-0.672c-0.248-0.288-0.435-0.632-0.559-1.032s-0.194-0.836-0.21-1.309
		c0-0.471,0.071-0.903,0.216-1.295c0.145-0.393,0.346-0.732,0.605-1.021s0.568-0.512,0.925-0.672c0.355-0.16,0.745-0.24,1.17-0.24
		c0.552,0,1.01,0.114,1.374,0.343c0.363,0.228,0.656,0.518,0.876,0.869c0.22,0.353,0.372,0.736,0.456,1.152s0.117,0.812,0.102,1.188
		h-4.644c-0.009,0.272,0.024,0.53,0.096,0.774c0.072,0.244,0.188,0.46,0.349,0.647c0.159,0.188,0.363,0.338,0.611,0.451
		c0.248,0.111,0.54,0.168,0.876,0.168c0.433,0,0.786-0.101,1.062-0.301c0.277-0.199,0.459-0.504,0.547-0.912h1.008
		C68.58,424.724,68.281,425.249,67.816,425.6z M67.57,421.616c-0.092-0.216-0.215-0.402-0.371-0.558
		c-0.156-0.156-0.341-0.28-0.553-0.372s-0.445-0.139-0.701-0.139c-0.265,0-0.503,0.047-0.715,0.139s-0.395,0.219-0.546,0.378
		c-0.151,0.16-0.272,0.347-0.36,0.558c-0.088,0.213-0.14,0.438-0.155,0.679h3.563C67.717,422.06,67.662,421.833,67.57,421.616z"/>
	<path fill="#0072BC" d="M70.793,419.792v1.309h0.023c0.248-0.504,0.553-0.876,0.912-1.116c0.359-0.239,0.816-0.352,1.368-0.336
		v1.08c-0.408,0-0.756,0.056-1.044,0.168s-0.521,0.276-0.696,0.492s-0.304,0.478-0.384,0.786c-0.08,0.308-0.12,0.662-0.12,1.062
		v2.76h-1.021v-6.205H70.793z"/>
	<path fill="#0072BC" d="M23.693,435.092v-0.9h1.044v-0.924c0-0.504,0.146-0.887,0.438-1.146c0.291-0.26,0.717-0.39,1.277-0.39
		c0.096,0,0.206,0.009,0.33,0.024s0.234,0.039,0.33,0.072v0.887c-0.088-0.031-0.184-0.053-0.288-0.065
		c-0.104-0.012-0.2-0.019-0.288-0.019c-0.248,0-0.439,0.049-0.576,0.145c-0.136,0.096-0.203,0.28-0.203,0.553v0.863h1.199v0.9
		h-1.199v5.304h-1.021v-5.304H23.693z"/>
	<path fill="#0072BC" d="M27.725,436.022c0.129-0.396,0.32-0.74,0.576-1.031c0.256-0.293,0.572-0.523,0.948-0.691
		s0.808-0.252,1.296-0.252c0.496,0,0.93,0.084,1.303,0.252c0.371,0.168,0.686,0.398,0.941,0.691
		c0.256,0.291,0.447,0.635,0.576,1.031c0.128,0.396,0.191,0.822,0.191,1.277c0,0.457-0.063,0.881-0.191,1.272
		c-0.129,0.392-0.32,0.734-0.576,1.026s-0.57,0.52-0.941,0.684c-0.373,0.164-0.807,0.246-1.303,0.246
		c-0.488,0-0.92-0.082-1.296-0.246s-0.692-0.392-0.948-0.684s-0.447-0.635-0.576-1.026c-0.127-0.392-0.191-0.815-0.191-1.272
		C27.533,436.844,27.598,436.418,27.725,436.022z M28.764,438.301c0.1,0.293,0.237,0.537,0.414,0.732
		c0.176,0.196,0.381,0.346,0.617,0.45s0.486,0.156,0.75,0.156s0.514-0.052,0.75-0.156s0.441-0.254,0.618-0.45
		c0.176-0.195,0.313-0.439,0.414-0.732c0.101-0.291,0.149-0.625,0.149-1.002c0-0.375-0.049-0.709-0.149-1.002
		c-0.101-0.291-0.238-0.537-0.414-0.737c-0.177-0.2-0.382-0.353-0.618-0.456s-0.486-0.156-0.75-0.156s-0.514,0.053-0.75,0.156
		s-0.441,0.256-0.617,0.456c-0.177,0.2-0.314,0.446-0.414,0.737c-0.101,0.293-0.15,0.627-0.15,1.002
		C28.613,437.676,28.663,438.01,28.764,438.301z"/>
	<path fill="#0072BC" d="M35.682,434.192v1.309h0.023c0.248-0.504,0.553-0.877,0.912-1.117c0.359-0.239,0.816-0.352,1.368-0.336
		v1.08c-0.408,0-0.756,0.057-1.044,0.168c-0.288,0.113-0.521,0.276-0.696,0.492c-0.176,0.217-0.304,0.479-0.384,0.787
		c-0.08,0.307-0.12,0.661-0.12,1.062v2.76h-1.021v-6.204H35.682z"/>
	<path fill="#0072BC" d="M44.572,440.396v-6.097h-2.207v-0.815c0.287,0,0.567-0.022,0.84-0.065c0.271-0.045,0.518-0.127,0.738-0.246
		c0.219-0.121,0.405-0.284,0.558-0.492c0.151-0.208,0.256-0.473,0.312-0.792h0.78v8.508H44.572z"/>
	<path fill="#0072BC" d="M48.653,433.7c0.112-0.367,0.286-0.686,0.522-0.953c0.235-0.269,0.529-0.479,0.881-0.631
		c0.353-0.151,0.752-0.228,1.201-0.228c0.367,0,0.713,0.054,1.037,0.161c0.324,0.109,0.606,0.265,0.846,0.469
		c0.24,0.204,0.431,0.458,0.57,0.762c0.141,0.305,0.211,0.656,0.211,1.057c0,0.375-0.059,0.707-0.175,0.996
		c-0.116,0.287-0.271,0.545-0.462,0.773s-0.412,0.434-0.66,0.618s-0.504,0.36-0.768,0.528c-0.264,0.16-0.528,0.317-0.793,0.474
		c-0.264,0.155-0.506,0.322-0.725,0.498c-0.221,0.176-0.408,0.366-0.564,0.569c-0.156,0.205-0.258,0.438-0.307,0.703h4.369v0.899
		h-5.557c0.04-0.504,0.13-0.935,0.27-1.29c0.141-0.355,0.318-0.666,0.534-0.93s0.46-0.496,0.732-0.696
		c0.271-0.2,0.556-0.388,0.852-0.563c0.36-0.225,0.677-0.431,0.948-0.619c0.271-0.188,0.498-0.377,0.678-0.569
		s0.316-0.399,0.408-0.624s0.139-0.484,0.139-0.779c0-0.232-0.045-0.443-0.133-0.631s-0.206-0.35-0.354-0.486
		c-0.148-0.135-0.322-0.24-0.522-0.312s-0.412-0.108-0.636-0.108c-0.297,0-0.551,0.062-0.762,0.187
		c-0.213,0.124-0.387,0.286-0.522,0.485c-0.136,0.201-0.233,0.427-0.294,0.679s-0.086,0.506-0.078,0.762h-1.02
		C48.497,434.467,48.541,434.068,48.653,433.7z"/>
	<path fill="#0072BC" d="M55.193,435.249c0.016-0.336,0.056-0.664,0.119-0.984c0.064-0.32,0.156-0.624,0.276-0.912
		s0.284-0.54,0.492-0.756c0.208-0.217,0.47-0.389,0.786-0.516c0.316-0.129,0.693-0.192,1.134-0.192s0.817,0.063,1.134,0.192
		c0.316,0.127,0.578,0.299,0.786,0.516c0.208,0.216,0.372,0.468,0.492,0.756s0.212,0.592,0.276,0.912
		c0.063,0.32,0.104,0.648,0.119,0.984c0.017,0.336,0.024,0.66,0.024,0.972s-0.008,0.636-0.024,0.972
		c-0.016,0.336-0.056,0.664-0.119,0.984c-0.064,0.32-0.156,0.622-0.276,0.906c-0.12,0.283-0.284,0.533-0.492,0.75
		c-0.208,0.215-0.468,0.386-0.78,0.51c-0.312,0.123-0.691,0.186-1.14,0.186c-0.44,0-0.817-0.062-1.134-0.186
		c-0.316-0.124-0.578-0.295-0.786-0.51c-0.208-0.217-0.372-0.467-0.492-0.75c-0.12-0.284-0.212-0.586-0.276-0.906
		c-0.063-0.32-0.104-0.648-0.119-0.984c-0.017-0.336-0.024-0.66-0.024-0.972S55.177,435.584,55.193,435.249z M56.279,437.282
		c0.02,0.396,0.084,0.768,0.191,1.116c0.108,0.349,0.282,0.642,0.522,0.882c0.239,0.24,0.575,0.36,1.008,0.36s0.769-0.12,1.009-0.36
		c0.239-0.24,0.413-0.533,0.521-0.882c0.107-0.349,0.172-0.72,0.191-1.116c0.02-0.396,0.03-0.754,0.03-1.074
		c0-0.207-0.002-0.438-0.006-0.689c-0.005-0.252-0.024-0.504-0.06-0.756c-0.037-0.252-0.088-0.498-0.156-0.738
		s-0.168-0.449-0.301-0.63c-0.131-0.181-0.297-0.325-0.498-0.438c-0.199-0.111-0.443-0.168-0.731-0.168s-0.532,0.057-0.731,0.168
		c-0.201,0.113-0.367,0.258-0.498,0.438c-0.133,0.181-0.232,0.39-0.301,0.63s-0.119,0.486-0.156,0.738
		c-0.035,0.252-0.056,0.504-0.06,0.756s-0.006,0.482-0.006,0.689C56.249,436.528,56.259,436.886,56.279,437.282z"/>
	<path fill="#0072BC" d="M63.161,434.192v0.84h0.024c0.168-0.344,0.432-0.594,0.791-0.75c0.36-0.156,0.756-0.234,1.188-0.234
		c0.479,0,0.897,0.089,1.254,0.265c0.356,0.177,0.651,0.414,0.888,0.714c0.236,0.301,0.414,0.646,0.534,1.038
		s0.181,0.808,0.181,1.248s-0.059,0.856-0.175,1.248s-0.292,0.733-0.528,1.026c-0.235,0.291-0.531,0.521-0.887,0.689
		c-0.357,0.168-0.771,0.252-1.242,0.252c-0.152,0-0.322-0.016-0.511-0.048s-0.374-0.084-0.558-0.155
		c-0.184-0.072-0.358-0.17-0.521-0.295c-0.164-0.123-0.303-0.277-0.414-0.462h-0.024v3.192h-1.021v-8.568H63.161z M66.827,436.394
		c-0.076-0.276-0.192-0.522-0.349-0.738s-0.355-0.388-0.6-0.516s-0.53-0.192-0.857-0.192c-0.345,0-0.637,0.068-0.877,0.204
		s-0.436,0.313-0.588,0.534s-0.262,0.471-0.33,0.75c-0.068,0.28-0.102,0.564-0.102,0.852c0,0.305,0.036,0.599,0.107,0.883
		c0.072,0.283,0.187,0.533,0.342,0.75c0.156,0.216,0.358,0.39,0.607,0.521c0.247,0.133,0.547,0.198,0.899,0.198
		c0.352,0,0.646-0.067,0.882-0.204c0.236-0.136,0.426-0.316,0.57-0.54c0.144-0.224,0.248-0.479,0.312-0.769
		c0.063-0.287,0.097-0.584,0.097-0.887C66.941,436.952,66.902,436.67,66.827,436.394z"/>
	<path fill="#0072BC" d="M68.729,434.192h1.309l1.487,2.172l1.548-2.172h1.225l-2.137,2.855l2.4,3.349h-1.309l-1.728-2.567
		l-1.728,2.567h-1.236l2.328-3.265L68.729,434.192z"/>
	<path fill="#0072BC" d="M84.629,436.952v0.816h-2.616v2.628h-0.815v-2.628h-2.616v-0.816h2.616v-2.627h0.815v2.627H84.629z"/>
</g>
<path fill="#100E0F" d="M55.689,126.487H33.717c-0.567,0-1.027,0.46-1.027,1.026v10.743c0,0.566,0.46,1.029,1.027,1.029h8.57v13.347
	c0,0-1.924,0.656-7.244,0.656c-6.279,0-15.048-2.294-15.048-21.578c0-19.289,9.131-21.826,17.704-21.826
	c7.421,0,10.618,1.307,12.653,1.936c0.639,0.196,1.23-0.44,1.23-1.007l2.451-10.38c0-0.267-0.091-0.586-0.393-0.802
	c-0.826-0.59-5.867-3.41-18.599-3.41c-14.67,0-29.716,6.241-29.716,36.24c0,30.003,17.227,34.473,31.743,34.473
	c12.02,0,19.312-5.136,19.312-5.136c0.302-0.166,0.333-0.587,0.333-0.779v-33.506C56.715,126.947,56.256,126.487,55.689,126.487z"/>
<g>
	<g>
		<path fill="#100E0F" d="M77.036,111.31c0-4.454-3.572-8.055-7.979-8.055c-4.402,0-7.977,3.601-7.977,8.055
			c0,4.451,3.574,8.061,7.977,8.061C73.464,119.371,77.036,115.761,77.036,111.31z"/>
		<path fill="#100E0F" d="M76.15,153.899c0-1.659,0-29.885,0-29.885c0-0.567-0.457-1.03-1.022-1.03H62.794
			c-0.565,0-1.071,0.583-1.071,1.151c0,0,0,35.96,0,42.814c0,1.258,0.784,1.632,1.798,1.632c0,0,5.265,0,11.112,0
			c1.219,0,1.518-0.599,1.518-1.653C76.15,164.634,76.15,155.644,76.15,153.899z"/>
	</g>
</g>
<path fill="#100E0F" d="M111.709,122.978h-9.281c0,0-0.014-12.259-0.014-12.261c0-0.465-0.239-0.695-0.774-0.695H88.992
	c-0.492,0-0.756,0.216-0.756,0.688v12.67c0,0-6.338,1.53-6.767,1.654c-0.426,0.123-0.741,0.518-0.741,0.986v7.962
	c0,0.572,0.457,1.035,1.023,1.035h6.484c0,0,0,8.326,0,19.153c0,14.227,9.979,15.623,16.714,15.623c3.076,0,6.757-0.987,7.364-1.212
	c0.367-0.136,0.581-0.516,0.581-0.929l0.011-8.759c0-0.57-0.482-1.033-1.026-1.033c-0.54,0-1.924,0.221-3.35,0.221
	c-4.558,0-6.103-2.119-6.103-4.863c0-2.742,0-18.201,0-18.201h9.281c0.565,0,1.023-0.463,1.023-1.035v-9.973
	C112.732,123.438,112.274,122.978,111.709,122.978z"/>
</svg>
